<svg width="46" height="47" viewBox="0 0 46 47" fill="none" xmlns="http://www.w3.org/2000/svg">
<rect y="0.655029" width="45.7215" height="45.7215" rx="4.08228" fill="#D02458"/>
<path fill-rule="evenodd" clip-rule="evenodd" d="M22.4252 8.94949C22.2746 9.0211 22.1008 9.16039 22.0391 9.25901C21.9774 9.35762 21.1763 11.378 20.2589 13.7488C18.4614 18.3936 18.4371 18.4436 17.9294 18.5384C17.8092 18.5608 15.7319 18.7276 13.3133 18.9089C9.79979 19.1723 8.87401 19.2614 8.7077 19.3522C8.21065 19.6236 8.00482 20.3793 8.30286 20.8382C8.38727 20.9682 9.99091 22.4259 11.8665 24.0776C14.0118 25.9668 15.3202 27.1658 15.3943 27.3105C15.4591 27.4369 15.5121 27.6421 15.5121 27.7665C15.5121 27.8908 15.2735 28.9891 14.9819 30.2071C13.6119 35.9307 13.3547 37.1045 13.4122 37.3713C13.5233 37.8876 14.0929 38.2905 14.5769 38.1955C14.7216 38.167 16.0359 37.3523 17.9364 36.1128C19.6534 34.993 21.3799 33.8673 21.7731 33.6113C22.5744 33.0896 22.8219 33.0097 23.1808 33.1574C23.3145 33.2123 25.1086 34.3579 27.1677 35.703C29.4758 37.2109 31.0027 38.1667 31.1493 38.1955C31.4696 38.2584 31.7861 38.1376 32.051 37.8515C32.4505 37.42 32.4526 37.4344 31.2686 32.446C30.6887 30.0026 30.2141 27.8906 30.2141 27.7524C30.2141 27.6144 30.2571 27.4145 30.3096 27.3082C30.362 27.202 31.9573 25.7484 33.8546 24.0781C35.7519 22.4078 37.3477 20.9716 37.4009 20.8866C37.7677 20.3006 37.4546 19.4477 36.8088 19.2739C36.6653 19.2353 34.5985 19.0608 32.216 18.886C29.8335 18.7113 27.793 18.5382 27.6816 18.5012C27.5703 18.4642 27.4029 18.3497 27.3098 18.2466C27.198 18.123 26.5714 16.5912 25.4698 13.7488C24.551 11.378 23.7488 9.35762 23.6871 9.25901C23.5615 9.05834 23.1136 8.81934 22.8631 8.81934C22.7729 8.81934 22.5758 8.87789 22.4252 8.94949Z" fill="white"/>
</svg>
