<svg width="36" height="36" viewBox="0 0 36 36" fill="none" xmlns="http://www.w3.org/2000/svg">
<path fill-rule="evenodd" clip-rule="evenodd" d="M17.4665 0.159416C17.282 0.24712 17.0692 0.417731 16.9937 0.538513C16.9181 0.659295 15.9369 3.13386 14.8132 6.0376C12.6117 11.7267 12.5819 11.7879 11.9601 11.9039C11.8128 11.9314 9.26859 12.1356 6.30624 12.3578C2.00285 12.6804 0.868955 12.7896 0.665248 12.9007C0.0564604 13.2331 -0.19564 14.1587 0.169407 14.7208C0.272788 14.8801 2.23694 16.6654 4.53414 18.6884C7.16174 21.0023 8.7643 22.4709 8.85506 22.6481C8.93441 22.803 8.99928 23.0543 8.99928 23.2065C8.99928 23.3588 8.70707 24.704 8.34998 26.1958C6.67193 33.2062 6.35689 34.6438 6.42731 34.9707C6.56349 35.603 7.26103 36.0965 7.8539 35.9801C8.03115 35.9453 9.64087 34.9474 11.9686 33.4292C14.0716 32.0577 16.1862 30.6789 16.6679 30.3654C17.6493 29.7264 17.9525 29.6285 18.392 29.8094C18.5557 29.8767 20.7532 31.2798 23.2751 32.9273C26.1022 34.7741 27.9723 35.9448 28.1519 35.9801C28.5442 36.0571 28.9319 35.9092 29.2563 35.5588C29.7456 35.0303 29.7481 35.0479 28.298 28.9381C27.5877 25.9454 27.0065 23.3586 27.0065 23.1894C27.0065 23.0203 27.059 22.7754 27.1234 22.6453C27.1876 22.5152 29.1415 20.7348 31.4653 18.689C33.7892 16.6432 35.7437 14.8842 35.8089 14.7801C36.2582 14.0623 35.8746 13.0177 35.0837 12.8049C34.9079 12.7576 32.3765 12.5438 29.4583 12.3297C26.5402 12.1158 24.0411 11.9037 23.9047 11.8584C23.7682 11.8131 23.5632 11.6728 23.4492 11.5465C23.3123 11.3952 22.5449 9.519 21.1956 6.0376C20.0702 3.13386 19.0876 0.659295 19.0121 0.538513C18.8583 0.29274 18.3096 0 18.0029 0C17.8923 0 17.651 0.071712 17.4665 0.159416Z" fill="#FDCD00"/>
</svg>
