<svg width="255" height="63" viewBox="0 0 255 63" fill="none" xmlns="http://www.w3.org/2000/svg">
<path fill-rule="evenodd" clip-rule="evenodd" d="M26.1873 0.346174C20.2969 1.49272 15.3653 3.80285 11.1448 7.39284C8.7815 9.40321 6.31732 12.2753 4.69231 14.9137C3.72746 16.48 2.07184 19.8748 2.07184 20.2864C2.07184 20.4136 1.97492 20.7003 1.85666 20.9233C0.913605 22.7002 0 27.8967 0 31.4843C0 35.072 0.913605 40.2684 1.85666 42.0453C1.97492 42.2683 2.07184 42.555 2.07184 42.6822C2.07184 43.0945 3.72839 46.49 4.69301 48.055C6.34167 50.7298 8.86475 53.6677 11.2311 55.6685C16.9059 60.4669 23.811 62.9909 31.2886 63C41.8858 63.0133 51.279 57.9896 57.4748 48.9951C58.2233 47.9083 60.7373 42.9267 60.7373 42.5298C60.7373 42.3579 60.8356 42.0348 60.9555 41.8119C61.2196 41.3214 61.7219 39.4534 62.2255 37.0875C62.4827 35.8798 62.5984 34.1414 62.5984 31.4843C62.5984 28.8273 62.4827 27.0889 62.2255 25.8812C61.7219 23.5152 61.2196 21.6473 60.9555 21.1568C60.8356 20.9338 60.7373 20.6247 60.7373 20.4699C60.7373 20.2038 58.7304 16.025 58.1227 15.0255C57.3303 13.7225 54.9605 10.6642 53.8088 9.45807C50.7591 6.26427 45.6749 3.01048 41.7232 1.72385C41.0218 1.49529 40.187 1.20579 39.8682 1.08042C39.5494 0.955051 38.7146 0.759407 38.0131 0.64571C37.3117 0.532012 36.2683 0.337302 35.6944 0.213099C34.1264 -0.126826 28.19 -0.0437123 26.1873 0.346174ZM33.255 2.13475C35.4483 3.38565 35.8877 6.56708 34.1097 8.3253C33.5089 8.91947 32.0594 9.53862 31.2692 9.53862C29.8433 9.53862 28.4729 8.54079 27.8021 7.0137C27.2161 5.68038 27.2324 4.96948 27.874 3.82877C29.0383 1.75934 31.3308 1.03746 33.255 2.13475ZM29.8438 16.4611L29.7814 21.7495L28.4989 22.2393C24.1301 23.9084 21.7816 27.1563 21.7816 31.5289C21.7816 35.6715 24.2632 39.1585 28.2819 40.6628C29.7084 41.1969 33.1047 41.196 34.5273 40.6611C37.2943 39.621 39.5025 37.3749 40.4994 34.5859C41.0677 32.9962 41.0482 29.8564 40.4609 28.3325C39.279 25.2669 37.2183 23.2542 34.2451 22.2611L32.9118 21.8156V16.4676V11.1199L33.5495 11.2403C33.9001 11.3067 34.8654 11.4822 35.6944 11.6305C36.5233 11.7789 37.3008 11.9993 37.4219 12.1203C37.5431 12.2412 37.8186 12.3402 38.034 12.3402C38.6879 12.3402 41.7452 13.9588 43.3464 15.1527C47.1613 17.9971 50.1933 22.6103 51.0118 26.815C51.8093 30.9126 51.8107 32.2748 51.0211 36.1536C50.6112 38.1675 49.3277 41.0746 47.9728 43.0569C45.0922 47.2726 40.3528 50.3903 35.2306 51.4393C28.674 52.7819 21.7454 50.5951 16.9073 45.6559C16.0173 44.7472 15.289 43.9259 15.289 43.8309C15.289 43.7356 15.1549 43.519 14.991 43.3492C14.2239 42.5555 13.0513 40.253 12.1581 37.7879C9.62717 30.8026 11.8309 22.1548 17.5247 16.7286C20.6296 13.7699 25.721 11.3958 29.38 11.2009L29.9062 11.1729L29.8438 16.4611ZM71.1719 19.3724C69.597 20.003 68.6699 20.6343 67.9836 21.5434C67.569 22.0925 67.2299 22.6941 67.2299 22.8807C67.2299 23.0672 67.0996 23.3509 66.9401 23.5115C66.5494 23.9049 66.5192 38.9503 66.9081 39.4445C67.05 39.6248 67.2311 40.0473 67.3106 40.3835C67.5365 41.3372 69.1536 42.7964 70.605 43.3555C71.8332 43.8288 72.306 43.858 78.7664 43.858C86.8259 43.858 87.4723 43.7415 89.2365 41.9725C90.9584 40.246 90.9802 40.1146 90.9802 31.4843C90.9802 22.8541 90.9584 22.7226 89.2365 20.9961C87.4649 19.2197 86.8361 19.1081 78.6878 19.1254C74.6717 19.134 71.5077 19.2379 71.1719 19.3724ZM93.7651 19.4163C93.7001 19.5865 93.677 20.822 93.7136 22.1616L93.7801 24.5971L98.4177 24.7138L103.055 24.8306L103.171 34.2859L103.287 43.7412L105.935 43.8075C107.898 43.8568 108.632 43.7963 108.772 43.5741C108.876 43.4092 108.963 39.0983 108.965 33.9941L108.968 24.7138H113.613H118.258L118.193 21.9706L118.127 19.2274L106.005 19.1669C96.1064 19.1177 93.8615 19.1632 93.7651 19.4163ZM120.904 19.636C120.833 19.9248 120.805 21.1593 120.842 22.3792L120.91 24.5971L129.761 24.7138L138.612 24.8306L139.21 25.3965C140.013 26.1562 140.013 27.2402 139.211 28.0001C138.636 28.5443 138.455 28.5704 134.515 28.6827L130.417 28.7995V31.4843V34.1692L134.515 34.2859C138.455 34.3982 138.636 34.4243 139.211 34.9685C140.07 35.7824 140.023 36.8638 139.095 37.6504L138.381 38.2548H129.728C122.052 38.2548 121.06 38.2966 120.935 38.6241C120.857 38.8273 120.794 39.9217 120.794 41.0564C120.794 42.191 120.857 43.2855 120.935 43.4886C121.06 43.8171 122.125 43.858 130.553 43.858C138.621 43.858 140.178 43.8031 141.021 43.4888C144.344 42.2503 145.373 40.7074 145.373 36.9654C145.373 35.2006 145.258 34.4577 144.771 33.1006C144.295 31.7698 144.222 31.3179 144.422 30.927C145.099 29.6035 145.373 28.259 145.373 26.2603C145.373 23.6565 144.888 22.2027 143.572 20.8638C141.874 19.1361 141.669 19.1081 130.711 19.1095L121.035 19.1107L120.904 19.636ZM152.33 19.4971C150.788 20.035 149.443 21.2532 148.693 22.7906L148.04 24.1302V31.4843V38.8385L148.691 40.1748C149.462 41.7537 150.701 42.8958 152.251 43.4555C153.222 43.8059 154.316 43.8601 160.383 43.8591C166.355 43.8582 167.539 43.8008 168.383 43.4709C169.927 42.8671 171.243 41.665 171.908 40.2509L172.503 38.9841V31.4955C172.503 27.377 172.414 23.8246 172.305 23.6016C172.197 23.3787 171.911 22.7875 171.672 22.2881C171.117 21.1337 169.828 20.0877 168.282 19.5396C167.209 19.1595 166.294 19.1118 160.222 19.1219C154.641 19.131 153.18 19.2003 152.33 19.4971ZM175.286 31.4843V43.858L184.851 43.8591C193.343 43.8601 194.542 43.8148 195.538 43.4555C197.096 42.8928 198.333 41.7474 199.081 40.1748C199.636 39.0052 199.717 38.5471 199.732 36.5038C199.747 34.3924 199.686 34.0398 199.089 32.816L198.429 31.4628L199.089 30.1496C199.69 28.9547 199.747 28.6244 199.732 26.4833C199.717 24.4187 199.637 23.9658 199.079 22.7906C198.335 21.2252 197.004 20.0312 195.393 19.4861C194.445 19.1655 192.898 19.1107 184.785 19.1107H175.286V31.4843ZM202.577 19.2592C202.488 19.3486 202.416 24.92 202.416 31.64V43.858H205.181H207.946L210.765 40.2976C212.315 38.3396 214.088 36.1069 214.704 35.3365C215.32 34.5661 216.694 32.8326 217.757 31.4843C218.82 30.1361 219.925 28.7715 220.212 28.4516C220.499 28.132 220.734 27.7904 220.734 27.6928C220.734 27.5953 220.838 27.5154 220.966 27.5154C221.116 27.5154 221.198 30.2717 221.198 35.3173C221.198 39.6084 221.261 43.2855 221.339 43.4886C221.548 44.0373 226.645 44.0373 226.854 43.4886C227.038 43.0063 227.038 19.9624 226.854 19.48C226.737 19.1737 226.27 19.1107 224.116 19.1107C222.384 19.1107 221.399 19.2078 221.16 19.4025C220.963 19.5631 220.095 20.5873 219.232 21.6788C218.37 22.7702 217.409 23.9784 217.097 24.3636C216.786 24.7489 214.686 27.3977 212.43 30.25C210.174 33.1022 208.252 35.4399 208.158 35.4446C208.064 35.4493 207.959 31.8025 207.926 27.3403L207.865 19.2274L205.302 19.1618C203.892 19.1259 202.666 19.1695 202.577 19.2592ZM229.707 19.2592C229.618 19.3486 229.546 24.9235 229.546 31.6473V43.8727L232.27 43.8071L234.995 43.7412L235.111 39.0719L235.227 34.4026L237.712 34.3366C240.485 34.2626 240.243 34.1521 241.951 36.2666C242.461 36.8981 243.661 38.368 244.618 39.5333C245.574 40.6985 246.755 42.1481 247.242 42.7548L248.127 43.858H251.112C252.871 43.858 254.157 43.7611 254.242 43.6222C254.357 43.4354 248.393 35.6556 246.653 33.7218C246.432 33.4758 245.973 32.8716 245.635 32.3794L245.018 31.4843L245.635 30.5892C245.973 30.0971 246.435 29.4929 246.661 29.2468C246.886 29.0007 248.527 26.9609 250.306 24.7138C252.085 22.4667 253.726 20.4228 253.952 20.1718C254.179 19.9208 254.327 19.6056 254.283 19.4714C254.234 19.3229 253.015 19.202 251.165 19.1623L248.126 19.0974L246.86 20.6798C244.076 24.1603 242.189 26.4805 241.9 26.777C241.733 26.9486 241.325 27.4475 240.992 27.8859L240.389 28.6827H237.755H235.12L235.058 23.9551L234.995 19.2274L232.432 19.1618C231.022 19.1259 229.796 19.1695 229.707 19.2592ZM84.9891 25.4857C85.5452 26.1368 85.5484 26.1716 85.5484 31.5154V36.89L84.8706 37.5724L84.1929 38.2548H78.8851H73.5774L72.8964 37.539L72.2154 36.8234V31.4498V26.0763L72.9861 25.3829L73.7567 24.6898L79.0934 24.7601L84.4301 24.8306L84.9891 25.4857ZM166.26 25.3963L166.938 26.0787V31.5623V37.0459L166.225 37.6504L165.511 38.2548H160.33H155.148L154.434 37.6504L153.721 37.0459V31.4843V25.9227L154.434 25.3183L155.148 24.7138H160.365H165.583L166.26 25.3963ZM193.147 25.1089C193.925 25.6451 194.061 25.8812 194.061 26.6983C194.061 27.5154 193.925 27.7514 193.147 28.2877C192.645 28.6332 191.838 28.6827 186.712 28.6827H180.851V26.854C180.851 25.848 180.92 24.955 181.006 24.8696C181.09 24.7839 183.728 24.7138 186.867 24.7138C191.847 24.7138 192.647 24.764 193.147 25.1089ZM193.147 34.6809C193.925 35.2172 194.061 35.4532 194.061 36.2703C194.061 37.0875 193.925 37.3235 193.147 37.8598C192.645 38.2053 191.838 38.2548 186.712 38.2548H180.851V36.2703V34.2859H186.712C191.838 34.2859 192.645 34.3354 193.147 34.6809Z" fill="#D02458"/>
</svg>
