<svg width="144" height="144" viewBox="0 0 144 144" fill="none" xmlns="http://www.w3.org/2000/svg">
<g filter="url(#filter0_d_1_3720)">
<rect x="19" y="120" width="106" height="106" rx="53" transform="rotate(-90 19 120)" fill="white"/>
<rect x="24.0479" y="114.952" width="95.9048" height="95.9048" rx="47.9524" transform="rotate(-90 24.0479 114.952)" fill="#D8E9FA"/>
<g clip-path="url(#clip0_1_3720)">
<path d="M71.352 74.2004V72.0346H73.7138V74.2004H71.352ZM71.352 70.6724V60.0884H73.7138V70.6724H71.352Z" fill="#058FB9"/>
<path fill-rule="evenodd" clip-rule="evenodd" d="M70.7372 46.0395C70.5813 46.0665 70.071 46.144 69.6033 46.2117C63.6716 47.0707 58.151 50.7736 54.9548 56.0371C52.041 60.8356 51.159 66.7768 52.5528 72.2188C53.5319 76.0419 55.2594 79.0894 58.0327 81.8864C60.8036 84.6809 63.9422 86.4859 67.6478 87.4163C69.6544 87.9202 70.358 88.0002 72.7783 88.0002C75.1966 88.0002 75.9026 87.9201 77.9019 87.4182C85.2641 85.5698 91.138 79.648 93.014 72.1825C94.8182 65.0029 92.7353 57.4019 87.5231 52.1455C84.4132 49.0092 80.7597 47.093 76.2721 46.2446C75.3744 46.0749 71.3865 45.9271 70.7372 46.0395ZM43.9238 49.8903C43.7083 50.8705 42.9474 57.9017 43.0029 58.4002C43.1002 59.2751 43.4167 59.9088 44.1972 60.7921C44.6017 61.25 45.0926 61.9811 45.3621 62.527C45.7966 63.4078 45.8311 63.5492 45.8796 64.65C45.9239 65.6559 45.8879 66.0055 45.6342 67.0271L45.3368 68.225V75.7506C45.3368 84.0541 45.304 83.669 46.0479 84.1122C46.7568 84.5345 47.6176 84.2998 48.0632 83.5627C48.2764 83.2101 48.284 82.9334 48.2806 75.7067C48.2777 69.5195 48.248 68.0869 48.1095 67.4729C48.0173 67.0641 47.9098 66.1578 47.8706 65.459C47.7565 63.4254 48.139 62.2597 49.3915 60.8227C50.1351 59.9697 50.4779 59.2353 50.5308 58.3814C50.5658 57.8203 49.9464 51.6722 49.6922 50.0556C49.626 49.6353 49.6097 49.6217 49.2095 49.6553C48.8183 49.6882 48.7953 49.7124 48.7953 50.0904C48.7953 51.5724 48.9909 58.5335 49.0372 58.6959C49.0861 58.8678 49.0128 58.896 48.5194 58.896H47.9449V54.2573V49.6185L47.5763 49.6544L47.2078 49.6902L47.1782 54.3503L47.1486 59.0104H46.753H46.3573V54.3148V49.6192L45.9321 49.6547L45.5069 49.6902L45.4773 54.3503L45.4477 59.0104H44.9296H44.4116L44.4744 58.2957C44.5089 57.9026 44.5649 56.3973 44.5987 54.9507C44.6326 53.504 44.6916 51.7158 44.7297 50.9767L44.7989 49.633H44.3897C44.0576 49.633 43.9697 49.6815 43.9238 49.8903ZM100.205 49.9429C99.7481 50.4421 99.208 51.2974 98.862 52.0703C97.4913 55.1324 96.5827 61.0177 96.5991 66.7296L96.6045 68.6737L97.1916 68.9638C98.1587 69.4418 98.5995 70.3629 98.481 71.6585C98.4459 72.0422 98.3324 72.57 98.2288 72.8312C98.0607 73.255 98.0453 73.8391 98.086 78.2516C98.1359 83.6465 98.1378 83.6624 98.8037 84.1023C99.195 84.361 99.8853 84.3608 100.32 84.1018C101.063 83.6593 101.017 84.865 100.986 66.4256C100.957 49.7206 100.957 49.6901 100.727 49.657C100.591 49.6374 100.379 49.7537 100.205 49.9429ZM74.4008 54.2166C77.2366 54.6466 79.8055 55.949 81.7636 57.9496C82.8339 59.043 83.2501 59.5931 83.9839 60.8837C84.6061 61.9779 85.2893 63.9605 85.4818 65.2301C85.6276 66.1908 85.6322 68.4454 85.4903 69.3026C84.6688 74.2648 81.2742 78.2924 76.6178 79.8295C71.7763 81.4277 66.5611 80.0833 63.0257 76.3255C60.9385 74.1072 59.8097 71.5637 59.5136 68.4132C58.9808 62.7423 62.2817 57.2764 67.5622 55.086C68.0923 54.866 68.7556 54.6237 69.0363 54.5474C70.6118 54.1191 72.848 53.9811 74.4008 54.2166Z" fill="#058FB9"/>
</g>
</g>
<defs>
<filter id="filter0_d_1_3720" x="0.828573" y="0.876192" width="142.343" height="142.343" filterUnits="userSpaceOnUse" color-interpolation-filters="sRGB">
<feFlood flood-opacity="0" result="BackgroundImageFix"/>
<feColorMatrix in="SourceAlpha" type="matrix" values="0 0 0 0 0 0 0 0 0 0 0 0 0 0 0 0 0 0 127 0" result="hardAlpha"/>
<feOffset dy="5.04762"/>
<feGaussianBlur stdDeviation="9.08571"/>
<feComposite in2="hardAlpha" operator="out"/>
<feColorMatrix type="matrix" values="0 0 0 0 0 0 0 0 0 0 0 0 0 0 0 0 0 0 0.1 0"/>
<feBlend mode="normal" in2="BackgroundImageFix" result="effect1_dropShadow_1_3720"/>
<feBlend mode="normal" in="SourceGraphic" in2="effect1_dropShadow_1_3720" result="shape"/>
</filter>
<clipPath id="clip0_1_3720">
<rect width="58" height="42" fill="white" transform="translate(43 46.0002)"/>
</clipPath>
</defs>
</svg>
