<svg width="114" height="114" viewBox="0 0 114 114" fill="none" xmlns="http://www.w3.org/2000/svg">
<g filter="url(#filter0_d_1_3061)">
<rect x="15" y="11" width="84" height="84" rx="42" fill="white"/>
<rect x="19" y="15" width="76" height="76" rx="38" fill="#D8E9FA"/>
<path d="M70.7071 53.7071C71.0976 53.3166 71.0976 52.6834 70.7071 52.2929L64.3431 45.9289C63.9526 45.5384 63.3195 45.5384 62.9289 45.9289C62.5384 46.3195 62.5384 46.9526 62.9289 47.3431L68.5858 53L62.9289 58.6569C62.5384 59.0474 62.5384 59.6805 62.9289 60.0711C63.3195 60.4616 63.9526 60.4616 64.3431 60.0711L70.7071 53.7071ZM45 54L70 54L70 52L45 52L45 54Z" fill="#058FB9"/>
</g>
<defs>
<filter id="filter0_d_1_3061" x="0.6" y="0.6" width="112.8" height="112.8" filterUnits="userSpaceOnUse" color-interpolation-filters="sRGB">
<feFlood flood-opacity="0" result="BackgroundImageFix"/>
<feColorMatrix in="SourceAlpha" type="matrix" values="0 0 0 0 0 0 0 0 0 0 0 0 0 0 0 0 0 0 127 0" result="hardAlpha"/>
<feOffset dy="4"/>
<feGaussianBlur stdDeviation="7.2"/>
<feComposite in2="hardAlpha" operator="out"/>
<feColorMatrix type="matrix" values="0 0 0 0 0 0 0 0 0 0 0 0 0 0 0 0 0 0 0.1 0"/>
<feBlend mode="normal" in2="BackgroundImageFix" result="effect1_dropShadow_1_3061"/>
<feBlend mode="normal" in="SourceGraphic" in2="effect1_dropShadow_1_3061" result="shape"/>
</filter>
</defs>
</svg>
