<svg width="114" height="114" viewBox="0 0 114 114" fill="none" xmlns="http://www.w3.org/2000/svg">
<g filter="url(#filter0_d_1_3054)">
<rect x="99" y="95" width="84" height="84" rx="42" transform="rotate(180 99 95)" fill="white"/>
<path d="M43.2929 52.2929C42.9024 52.6834 42.9024 53.3166 43.2929 53.7071L49.6569 60.0711C50.0474 60.4616 50.6805 60.4616 51.0711 60.0711C51.4616 59.6805 51.4616 59.0474 51.0711 58.6569L45.4142 53L51.0711 47.3431C51.4616 46.9526 51.4616 46.3195 51.0711 45.9289C50.6805 45.5384 50.0474 45.5384 49.6569 45.9289L43.2929 52.2929ZM69 52H44V54H69V52Z" fill="#058FB9"/>
</g>
<defs>
<filter id="filter0_d_1_3054" x="0.6" y="0.6" width="112.8" height="112.8" filterUnits="userSpaceOnUse" color-interpolation-filters="sRGB">
<feFlood flood-opacity="0" result="BackgroundImageFix"/>
<feColorMatrix in="SourceAlpha" type="matrix" values="0 0 0 0 0 0 0 0 0 0 0 0 0 0 0 0 0 0 127 0" result="hardAlpha"/>
<feOffset dy="4"/>
<feGaussianBlur stdDeviation="7.2"/>
<feComposite in2="hardAlpha" operator="out"/>
<feColorMatrix type="matrix" values="0 0 0 0 0 0 0 0 0 0 0 0 0 0 0 0 0 0 0.1 0"/>
<feBlend mode="normal" in2="BackgroundImageFix" result="effect1_dropShadow_1_3054"/>
<feBlend mode="normal" in="SourceGraphic" in2="effect1_dropShadow_1_3054" result="shape"/>
</filter>
</defs>
</svg>
