<svg width="25" height="25" viewBox="0 0 25 25" fill="none" xmlns="http://www.w3.org/2000/svg">
<path d="M22.5 9.21625V18.125C22.5 18.9538 22.1708 19.7487 21.5847 20.3347C20.9987 20.9208 20.2038 21.25 19.375 21.25H5.625C4.7962 21.25 4.00134 20.9208 3.41529 20.3347C2.82924 19.7487 2.5 18.9538 2.5 18.125V9.21625L12.1825 14.9137C12.2787 14.9705 12.3883 15.0004 12.5 15.0004C12.6117 15.0004 12.7213 14.9705 12.8175 14.9137L22.5 9.21625ZM19.375 5C20.1439 4.99988 20.8859 5.28326 21.459 5.79592C22.0321 6.30859 22.3961 7.01455 22.4813 7.77875L12.5 13.65L2.51875 7.77875C2.60395 7.01455 2.9679 6.30859 3.54099 5.79592C4.11408 5.28326 4.85607 4.99988 5.625 5H19.375Z" fill="white"/>
</svg>
