<svg width="81" height="80" viewBox="0 0 81 80" fill="none" xmlns="http://www.w3.org/2000/svg">
<g filter="url(#filter0_d_1_2825)">
<rect x="12" y="7.5" width="57" height="57" rx="28.5" fill="url(#paint0_linear_1_2825)"/>
<path d="M50.5 33.2163V42.125C50.5 42.9538 50.1708 43.7487 49.5847 44.3347C48.9987 44.9208 48.2038 45.25 47.375 45.25H33.625C32.7962 45.25 32.0013 44.9208 31.4153 44.3347C30.8292 43.7487 30.5 42.9538 30.5 42.125V33.2163L40.1825 38.9137C40.2787 38.9705 40.3883 39.0004 40.5 39.0004C40.6117 39.0004 40.7213 38.9705 40.8175 38.9137L50.5 33.2163ZM47.375 29C48.1439 28.9999 48.8859 29.2833 49.459 29.7959C50.0321 30.3086 50.3961 31.0146 50.4813 31.7787L40.5 37.65L30.5188 31.7787C30.6039 31.0146 30.9679 30.3086 31.541 29.7959C32.1141 29.2833 32.8561 28.9999 33.625 29H47.375Z" fill="white"/>
</g>
<defs>
<filter id="filter0_d_1_2825" x="0.9" y="0.4" width="79.2" height="79.2" filterUnits="userSpaceOnUse" color-interpolation-filters="sRGB">
<feFlood flood-opacity="0" result="BackgroundImageFix"/>
<feColorMatrix in="SourceAlpha" type="matrix" values="0 0 0 0 0 0 0 0 0 0 0 0 0 0 0 0 0 0 127 0" result="hardAlpha"/>
<feOffset dy="4"/>
<feGaussianBlur stdDeviation="5.55"/>
<feComposite in2="hardAlpha" operator="out"/>
<feColorMatrix type="matrix" values="0 0 0 0 1 0 0 0 0 0.478431 0 0 0 0 0.00392157 0 0 0 0.5 0"/>
<feBlend mode="normal" in2="BackgroundImageFix" result="effect1_dropShadow_1_2825"/>
<feBlend mode="normal" in="SourceGraphic" in2="effect1_dropShadow_1_2825" result="shape"/>
</filter>
<linearGradient id="paint0_linear_1_2825" x1="12" y1="36" x2="69" y2="36" gradientUnits="userSpaceOnUse">
<stop stop-color="#FF7D02"/>
<stop offset="1" stop-color="#FCA10A"/>
</linearGradient>
</defs>
</svg>
