<svg width="31" height="44" viewBox="0 0 31 44" fill="none" xmlns="http://www.w3.org/2000/svg">
<path fill-rule="evenodd" clip-rule="evenodd" d="M8.82867 0.115027C7.7527 0.515369 6.94362 1.24609 6.47764 2.23795C6.24273 2.73802 6.20484 2.95555 6.20484 3.80264C6.20484 4.70387 6.2331 4.8439 6.54131 5.4688C6.9402 6.27754 7.58995 6.91257 8.41259 7.29751C8.92599 7.53768 9.13067 7.5724 10.0354 7.5724C10.9523 7.5724 11.1362 7.54026 11.6435 7.29152C14.0584 6.10775 14.5993 2.93127 12.7036 1.06576C11.9515 0.325635 11.2683 0.0424814 10.1447 0.00527877C9.53505 -0.014976 9.07476 0.0233634 8.82867 0.115027ZM8.18483 8.91449C6.19428 9.32868 4.58409 10.1299 3.16606 11.4118L2.61197 11.9127L1.27521 18.5782C0.394591 22.9691 -0.0396091 25.3495 0.00283769 25.5537C0.163204 26.3257 0.915031 26.9488 1.68642 26.9488C2.14288 26.9488 2.80971 26.5904 3.03199 26.2255C3.14173 26.0454 3.672 23.7174 4.34794 20.4487L5.48014 14.9734L5.50633 29.4867L5.53263 44H7.24044H8.94835V35.4744V26.9488H10.0354H11.1225V35.4744V44H12.7789H14.4354L14.4445 29.3515L14.4536 14.7029L15.5751 20.2164C16.1921 23.2489 16.7538 25.8675 16.8236 26.0357C16.9549 26.352 17.4385 26.7732 17.8001 26.8861C17.9357 26.9284 18.7125 28.154 20.0509 30.4375L22.0948 33.9243L22.0956 38.9621L22.0965 44H23.2353H24.3742V40.6931V37.3862H24.8918H25.4094V40.6931V44H26.5483H27.6871L27.6906 39.2722L27.6942 34.5443L28.3185 35.9911C29.0018 37.5743 29.2094 37.8684 29.7098 37.9621C30.3124 38.075 31 37.5049 31 36.8927C31 36.6074 29.0668 32.0255 28.7573 31.577C28.415 31.0812 27.5837 30.444 26.803 30.0791C26.2102 29.802 26.1064 29.7886 24.1702 29.739L22.1546 29.6873L21.0432 27.8272C20.1222 26.2857 19.931 25.894 19.9271 25.5407C19.9245 25.3062 19.3391 22.1672 18.6263 18.5652L17.3302 12.0161L16.6847 11.396C15.5168 10.2743 14.1199 9.51231 12.407 9.06237C11.3318 8.77994 9.19165 8.70502 8.18483 8.91449ZM24.1665 23.7331C23.3963 23.9828 22.6337 24.6661 22.3388 25.3706C21.9847 26.2164 22.2158 27.4988 22.859 28.2583C23.5678 29.0952 25.0173 29.3714 26.0882 28.8736C28.129 27.925 28.1788 24.9605 26.1708 23.9541C25.6377 23.6869 24.646 23.5776 24.1665 23.7331Z" fill="#058FB9"/>
</svg>
