<svg width="81" height="80" viewBox="0 0 81 80" fill="none" xmlns="http://www.w3.org/2000/svg">
<g filter="url(#filter0_d_1_2812)">
<rect x="12" y="7.5" width="57" height="57" rx="28.5" fill="url(#paint0_linear_1_2812)"/>
<path d="M40 24.25C42.5859 24.25 45.0658 25.2772 46.8943 27.1057C48.7228 28.9342 49.75 31.4141 49.75 34C49.75 38.12 46.855 42.61 41.14 47.518C40.8222 47.791 40.4171 47.9409 39.9981 47.9405C39.5792 47.9402 39.1743 47.7895 38.857 47.516L38.479 47.188C33.017 42.408 30.25 38.028 30.25 34C30.25 31.4141 31.2772 28.9342 33.1057 27.1057C34.9342 25.2772 37.4141 24.25 40 24.25ZM40 30.25C39.0054 30.25 38.0516 30.6451 37.3483 31.3483C36.6451 32.0516 36.25 33.0054 36.25 34C36.25 34.9946 36.6451 35.9484 37.3483 36.6517C38.0516 37.3549 39.0054 37.75 40 37.75C40.9946 37.75 41.9484 37.3549 42.6517 36.6517C43.3549 35.9484 43.75 34.9946 43.75 34C43.75 33.0054 43.3549 32.0516 42.6517 31.3483C41.9484 30.6451 40.9946 30.25 40 30.25Z" fill="white"/>
</g>
<defs>
<filter id="filter0_d_1_2812" x="0.9" y="0.4" width="79.2" height="79.2" filterUnits="userSpaceOnUse" color-interpolation-filters="sRGB">
<feFlood flood-opacity="0" result="BackgroundImageFix"/>
<feColorMatrix in="SourceAlpha" type="matrix" values="0 0 0 0 0 0 0 0 0 0 0 0 0 0 0 0 0 0 127 0" result="hardAlpha"/>
<feOffset dy="4"/>
<feGaussianBlur stdDeviation="5.55"/>
<feComposite in2="hardAlpha" operator="out"/>
<feColorMatrix type="matrix" values="0 0 0 0 1 0 0 0 0 0.478431 0 0 0 0 0.00392157 0 0 0 0.5 0"/>
<feBlend mode="normal" in2="BackgroundImageFix" result="effect1_dropShadow_1_2812"/>
<feBlend mode="normal" in="SourceGraphic" in2="effect1_dropShadow_1_2812" result="shape"/>
</filter>
<linearGradient id="paint0_linear_1_2812" x1="12" y1="36" x2="69" y2="36" gradientUnits="userSpaceOnUse">
<stop stop-color="#FF7D02"/>
<stop offset="1" stop-color="#FCA10A"/>
</linearGradient>
</defs>
</svg>
