<svg width="114" height="114" viewBox="0 0 114 114" fill="none" xmlns="http://www.w3.org/2000/svg">
<g filter="url(#filter0_d_1_3839)">
<rect x="15" y="11" width="84" height="84" rx="42" fill="white"/>
<rect x="19" y="15" width="76" height="76" rx="38" fill="#D8E9FA"/>
<path fill-rule="evenodd" clip-rule="evenodd" d="M55.3207 31.0168C55.1786 31.0365 54.6941 31.0946 54.2442 31.1458C50.6233 31.5576 46.8173 33.1095 43.6765 35.4547C42.5915 36.2651 40.2533 38.6026 39.4427 39.6873C37.1046 42.8164 35.6574 46.3472 35.1125 50.2516C34.9625 51.3266 34.9625 54.6865 35.1125 55.7615C35.4555 58.2193 36.1465 60.4994 37.1865 62.6059C38.3371 64.936 39.3979 66.4569 41.1109 68.2318C43.0291 70.2196 44.8657 71.5642 47.3115 72.7715C49.524 73.8637 51.669 74.5154 54.2872 74.891C55.3129 75.0381 58.6906 75.0358 59.7558 74.8872C64.6227 74.2084 68.797 72.2018 72.2301 68.8907C75.9184 65.3334 78.1718 60.8896 78.8875 55.7615C79.0375 54.6865 79.0375 51.3266 78.8875 50.2516C78.5539 47.8611 77.8647 45.5586 76.8681 43.5047C75.6695 41.0347 74.5424 39.4591 72.5471 37.4643C70.541 35.459 69.0999 34.4256 66.6024 33.2018C63.5474 31.7047 60.8704 31.0682 57.3875 31.0107C56.3929 30.9943 55.4628 30.997 55.3207 31.0168ZM59.2132 35.3166C63.1006 35.8187 66.5038 37.4438 69.3006 40.1332C72.1875 42.9093 73.9357 46.2164 74.6268 50.2085C74.7381 50.8519 74.7758 51.5591 74.7758 53.0065C74.7758 55.1319 74.6853 55.8839 74.2176 57.6448C72.6074 63.708 67.7048 68.6091 61.6397 70.2188C59.8782 70.6864 59.126 70.7768 57 70.7768C55.551 70.7768 54.8451 70.7391 54.2011 70.6276C49.1961 69.761 44.9181 67.0084 42.1546 62.8763C39.3873 58.7387 38.4951 53.5878 39.699 48.7019C40.7529 44.4253 43.4168 40.6456 47.1231 38.1685C49.3705 36.6663 51.9795 35.6875 54.7178 35.3189C55.9021 35.1595 57.989 35.1584 59.2132 35.3166ZM54.7986 37.9005C52.5004 38.236 50.0779 39.2129 48.1296 40.5899C47.08 41.3317 45.3215 43.0897 44.5794 44.139C43.1953 46.0962 42.1093 48.8196 41.8846 50.8973C41.8539 51.1814 41.81 51.4816 41.787 51.5645C41.7483 51.7038 41.8573 51.7151 43.2309 51.7151C44.5551 51.7151 44.7564 51.7344 45.0831 51.8925C45.4701 52.0798 45.8044 52.5961 45.8044 53.0065C45.8044 53.417 45.4701 53.9333 45.0831 54.1206C44.7564 54.2787 44.5551 54.2979 43.2309 54.2979C41.8573 54.2979 41.7483 54.3093 41.787 54.4486C41.81 54.5314 41.8539 54.8317 41.8846 55.1158C42.1093 57.1935 43.1953 59.9169 44.5794 61.8741C45.3215 62.9234 47.08 64.6814 48.1296 65.4232C50.0875 66.8069 52.8117 67.8926 54.8901 68.1172C55.1743 68.1479 55.4746 68.1918 55.5575 68.2148C55.6968 68.2535 55.7082 68.1445 55.7082 66.7714C55.7082 65.4476 55.7275 65.2463 55.8856 64.9198C56.073 64.5329 56.5894 64.1986 57 64.1986C57.4106 64.1986 57.927 64.5329 58.1144 64.9198C58.2725 65.2463 58.2918 65.4476 58.2918 66.7714C58.2918 68.1445 58.3032 68.2535 58.4425 68.2148C58.5254 68.1918 58.8257 68.1479 59.1099 68.1172C61.1883 67.8926 63.9125 66.8069 65.8704 65.4232C66.92 64.6814 68.6785 62.9234 69.4206 61.8741C70.8047 59.9169 71.8907 57.1935 72.1154 55.1158C72.1461 54.8317 72.19 54.5314 72.213 54.4486C72.2517 54.3093 72.1427 54.2979 70.7691 54.2979C69.4449 54.2979 69.2436 54.2787 68.9169 54.1206C68.5299 53.9333 68.1956 53.417 68.1956 53.0065C68.1956 52.5961 68.5299 52.0798 68.9169 51.8925C69.2436 51.7344 69.4449 51.7151 70.7691 51.7151C72.1427 51.7151 72.2517 51.7038 72.213 51.5645C72.19 51.4816 72.1461 51.1814 72.1154 50.8973C71.8189 48.1567 70.2866 44.9225 68.2244 42.685C65.8378 40.0953 62.3102 38.2418 59.1099 37.8959C58.8257 37.8652 58.5254 37.8213 58.4425 37.7983C58.3032 37.7596 58.2918 37.8686 58.2918 39.2417C58.2918 40.5655 58.2725 40.7668 58.1144 41.0933C57.927 41.4802 57.4106 41.8144 57 41.8144C56.5894 41.8144 56.073 41.4802 55.8856 41.0933C55.7276 40.7669 55.7082 40.5654 55.7082 39.2475C55.7082 38.4338 55.6791 37.7722 55.6436 37.7773C55.6081 37.7824 55.2278 37.8378 54.7986 37.9005ZM64.5023 44.8435C64.7155 44.9634 64.8994 45.1606 65.0092 45.3873C65.2122 45.8067 65.2236 46.0236 65.0626 46.4087C64.9044 46.7876 58.0367 53.8506 57.58 54.1042C57.1765 54.3284 56.9358 54.3454 56.535 54.1779C56.0977 53.9953 50.8474 49.3701 50.7153 49.0513C50.6501 48.8939 50.6228 48.6047 50.6482 48.3403C50.684 47.9674 50.7409 47.8491 50.9967 47.6147C51.3549 47.2865 51.8089 47.1771 52.2501 47.3127C52.4617 47.3777 53.2701 48.029 54.7178 49.3009C55.902 50.3413 56.894 51.1939 56.9223 51.1955C56.9506 51.1972 58.3443 49.7854 60.0195 48.058C61.6947 46.3307 63.1829 44.8594 63.3267 44.7884C63.697 44.6058 64.1137 44.6252 64.5023 44.8435Z" fill="#058FB9"/>
</g>
<defs>
<filter id="filter0_d_1_3839" x="0.6" y="0.6" width="112.8" height="112.8" filterUnits="userSpaceOnUse" color-interpolation-filters="sRGB">
<feFlood flood-opacity="0" result="BackgroundImageFix"/>
<feColorMatrix in="SourceAlpha" type="matrix" values="0 0 0 0 0 0 0 0 0 0 0 0 0 0 0 0 0 0 127 0" result="hardAlpha"/>
<feOffset dy="4"/>
<feGaussianBlur stdDeviation="7.2"/>
<feComposite in2="hardAlpha" operator="out"/>
<feColorMatrix type="matrix" values="0 0 0 0 0 0 0 0 0 0 0 0 0 0 0 0 0 0 0.1 0"/>
<feBlend mode="normal" in2="BackgroundImageFix" result="effect1_dropShadow_1_3839"/>
<feBlend mode="normal" in="SourceGraphic" in2="effect1_dropShadow_1_3839" result="shape"/>
</filter>
</defs>
</svg>
