<svg width="43" height="43" viewBox="0 0 43 43" fill="none" xmlns="http://www.w3.org/2000/svg">
<rect width="43" height="43" rx="21.5" fill="#7293AD"/>
<path d="M22.7422 9.41663C24.1016 9.42025 24.7915 9.4275 25.3872 9.44442L25.6217 9.45288C25.8923 9.46254 26.1594 9.47463 26.482 9.48913C27.7677 9.54954 28.6449 9.75254 29.4146 10.051C30.2121 10.3579 30.884 10.7736 31.5558 11.4442C32.1705 12.0481 32.6459 12.7788 32.949 13.5854C33.2475 14.3551 33.4505 15.2323 33.5109 16.5192C33.5254 16.8406 33.5375 17.1077 33.5471 17.3795L33.5544 17.614C33.5725 18.2085 33.5797 18.8984 33.5822 20.2578L33.5834 21.1592V22.7421C33.5863 23.6235 33.577 24.5049 33.5556 25.386L33.5483 25.6204C33.5387 25.8923 33.5266 26.1593 33.5121 26.4807C33.4517 27.7676 33.2462 28.6436 32.949 29.4145C32.6459 30.2211 32.1705 30.9519 31.5558 31.5557C30.9519 32.1704 30.2212 32.6458 29.4146 32.9489C28.6449 33.2474 27.7677 33.4504 26.482 33.5108L25.6217 33.547L25.3872 33.5543C24.7915 33.5712 24.1016 33.5797 22.7422 33.5821L21.8408 33.5833H20.2591C19.3773 33.5864 18.4955 33.5771 17.614 33.5555L17.3796 33.5483C17.0928 33.5374 16.806 33.5249 16.5193 33.5108C15.2336 33.4504 14.3564 33.2474 13.5855 32.9489C12.7793 32.6457 12.049 32.1702 11.4455 31.5557C10.8304 30.952 10.3545 30.2212 10.0511 29.4145C9.75262 28.6448 9.54962 27.7676 9.4892 26.4807L9.45295 25.6204L9.44691 25.386C9.42464 24.5049 9.41457 23.6235 9.4167 22.7421V20.2578C9.41336 19.3764 9.42222 18.4951 9.44329 17.614L9.45174 17.3795C9.46141 17.1077 9.47349 16.8406 9.48799 16.5192C9.54841 15.2323 9.75141 14.3563 10.0499 13.5854C10.354 12.7784 10.8307 12.0477 11.4467 11.4442C12.0498 10.8298 12.7797 10.3544 13.5855 10.051C14.3564 9.75254 15.2324 9.54954 16.5193 9.48913C16.8407 9.47463 17.109 9.46254 17.3796 9.45288L17.614 9.44563C18.4951 9.42416 19.3765 9.41489 20.2579 9.41783L22.7422 9.41663ZM21.5 15.4583C19.8977 15.4583 18.361 16.0948 17.2279 17.2279C16.0949 18.3609 15.4584 19.8976 15.4584 21.5C15.4584 23.1023 16.0949 24.639 17.2279 25.7721C18.361 26.9051 19.8977 27.5416 21.5 27.5416C23.1024 27.5416 24.6391 26.9051 25.7721 25.7721C26.9052 24.639 27.5417 23.1023 27.5417 21.5C27.5417 19.8976 26.9052 18.3609 25.7721 17.2279C24.6391 16.0948 23.1024 15.4583 21.5 15.4583ZM21.5 17.875C21.9761 17.8749 22.4475 17.9686 22.8873 18.1507C23.3271 18.3328 23.7268 18.5997 24.0635 18.9363C24.4001 19.2728 24.6672 19.6724 24.8495 20.1122C25.0317 20.5519 25.1256 21.0233 25.1256 21.4994C25.1257 21.9754 25.032 22.4468 24.8499 22.8866C24.6678 23.3265 24.4009 23.7261 24.0643 24.0628C23.7278 24.3995 23.3282 24.6665 22.8884 24.8488C22.4487 25.031 21.9773 25.1249 21.5012 25.125C20.5398 25.125 19.6178 24.743 18.938 24.0632C18.2582 23.3834 17.8762 22.4614 17.8762 21.5C17.8762 20.5385 18.2582 19.6165 18.938 18.9367C19.6178 18.2569 20.5398 17.875 21.5012 17.875M27.845 13.6458C27.4444 13.6458 27.0602 13.8049 26.777 14.0882C26.4937 14.3714 26.3346 14.7556 26.3346 15.1562C26.3346 15.5568 26.4937 15.941 26.777 16.2242C27.0602 16.5075 27.4444 16.6666 27.845 16.6666C28.2456 16.6666 28.6298 16.5075 28.913 16.2242C29.1963 15.941 29.3554 15.5568 29.3554 15.1562C29.3554 14.7556 29.1963 14.3714 28.913 14.0882C28.6298 13.8049 28.2456 13.6458 27.845 13.6458Z" fill="white"/>
</svg>
