<svg width="43" height="41" viewBox="0 0 43 41" fill="none" xmlns="http://www.w3.org/2000/svg">
<path fill-rule="evenodd" clip-rule="evenodd" d="M0.0333483 0.837324L0.0666966 1.67465L2.81545 1.73239L5.5642 1.79014L5.93478 2.16769L6.30535 2.54523L6.36207 17.2395C6.41538 31.0532 6.43092 31.9602 6.62205 32.3746C6.91515 33.0105 7.65052 33.777 8.26724 34.089L8.80082 34.3592L25.9004 34.3899L43 34.4206V33.5526V32.6845H26.15C7.8471 32.6845 9.02382 32.7265 8.40381 32.051L8.12024 31.742L8.06352 17.0548L8.00681 2.36761L7.74206 1.82028C7.59653 1.51931 7.24909 1.06843 6.97017 0.818383C6.12999 0.0654843 5.78902 0 2.70712 0H0L0.0333483 0.837324ZM22.696 4.83962C21.6899 5.16508 20.7137 6.03578 20.3099 6.96804C20.1715 7.28772 20.0411 7.89221 20.0045 8.38282L19.9409 9.23944H15.8126C11.9777 9.23944 11.6544 9.25503 11.2634 9.45922C10.7313 9.73698 10.3909 10.1076 10.1674 10.6521C10.0141 11.0258 9.99217 12.1955 9.99433 19.89C9.99671 28.2104 10.0085 28.7261 10.2066 29.1702C10.4933 29.8131 11.1526 30.3399 11.8567 30.4888C12.2448 30.5708 16.955 30.6 26.3827 30.579C41.8423 30.5445 40.7215 30.6032 41.5015 29.7877C42.2243 29.032 42.2164 29.1503 42.1811 19.5632C42.1523 11.7486 42.131 10.8807 41.9604 10.5676C41.707 10.1026 41.0881 9.51269 40.6957 9.36197C40.4902 9.28309 38.7814 9.23944 35.9032 9.23944H31.4301V8.5675C31.4301 7.06909 30.6881 5.78643 29.447 5.13978L28.7815 4.79296L25.8806 4.77044C24.285 4.75808 22.852 4.78926 22.696 4.83962ZM28.8912 6.7635C29.4863 7.21623 29.6619 7.57484 29.7096 8.43468L29.7543 9.23944H25.7147H21.6751V8.62236C21.6751 7.80744 22.0499 7.07695 22.6478 6.72619C23.081 6.47211 23.1672 6.46587 25.8356 6.49521C28.4036 6.52339 28.5982 6.54048 28.8912 6.7635ZM19.0662 19.8648V28.8732H17.9887H16.9111V19.8648V10.8563H17.9887H19.0662V19.8648ZM34.4927 19.8648V28.8732H33.4719H32.451V19.8648V10.8563H33.4719H34.4927V19.8648ZM11.0736 35.4628C9.75578 36.1322 9.13226 37.6118 9.55807 39.0589C9.63146 39.3083 9.88725 39.7387 10.1265 40.0154C10.7205 40.7025 11.36 41 12.2432 41C13.4284 41 14.2619 40.5085 14.8076 39.4875C15.5892 38.0254 14.9573 36.1368 13.4539 35.4414C12.8249 35.1505 11.6682 35.1609 11.0736 35.4628ZM38.138 35.3835C37.5381 35.6045 36.8724 36.2473 36.5789 36.8891C36.0493 38.0471 36.3369 39.4559 37.2739 40.2934C37.8743 40.8302 38.3333 41 39.1835 41C42.2368 41 43.123 36.7301 40.3369 35.4414C39.8091 35.1973 38.7212 35.1686 38.138 35.3835Z" fill="#058FB9"/>
</svg>
