<svg width="20" height="16" viewBox="0 0 20 16" fill="none" xmlns="http://www.w3.org/2000/svg">
<path fill-rule="evenodd" clip-rule="evenodd" d="M3.17756 0.0536276C2.74842 0.200511 2.32875 0.607637 2.13011 1.06971L2.0183 1.32982L2.00637 3.5989L1.99444 5.86798L2.12632 5.83923C2.19887 5.8234 2.57502 5.81048 2.96224 5.81048H3.66628V4.86349C3.66628 3.72795 3.70241 3.53972 3.9781 3.23917C4.28867 2.90051 4.29918 2.89919 6.67018 2.89919C9.04118 2.89919 9.05169 2.90051 9.36226 3.23917C9.63795 3.53972 9.67408 3.72795 9.67408 4.86349V5.81048H10.0078H10.3416V4.86349C10.3416 3.72795 10.3777 3.53972 10.6534 3.23917C10.964 2.90051 10.9745 2.89919 13.3455 2.89919C15.7165 2.89919 15.727 2.90051 16.0376 3.23917C16.3133 3.53972 16.3494 3.72795 16.3494 4.86349V5.81048H17.0535C17.4407 5.81048 17.8168 5.8234 17.8894 5.83923L18.0213 5.86798L18.0093 3.59785L17.9974 1.32773L17.8625 1.02905C17.6978 0.664407 17.3621 0.304226 17.0275 0.133279L16.7875 0.0106405L10.0704 0.002043C4.59811 -0.0049623 3.32078 0.0045905 3.17756 0.0536276ZM4.43623 3.73869C4.33381 3.85032 4.33381 3.85045 4.33381 4.83042V5.81048H6.67018H9.00655V4.83042C9.00655 3.85045 9.00655 3.85032 8.90412 3.73869L8.80174 3.62701H6.67018H4.53862L4.43623 3.73869ZM11.1116 3.73869C11.0091 3.85032 11.0092 3.85045 11.0092 4.83042V5.81048H13.3455H15.6819V4.83042C15.6819 3.85045 15.6819 3.85032 15.5795 3.73869L15.4771 3.62701H13.3455H11.214L11.1116 3.73869ZM1.84249 6.60408C1.41343 6.75083 0.993719 7.158 0.795044 7.62012C0.689657 7.86531 0.68244 7.92526 0.669339 8.66491L0.655488 9.44959H10.0078H19.3602L19.3464 8.66373C19.3326 7.88332 19.3315 7.87572 19.1975 7.57927C19.0329 7.21481 18.697 6.85454 18.3626 6.68368L18.1226 6.56105L10.0704 6.55249C3.49393 6.54549 1.98609 6.55495 1.84249 6.60408ZM0.542132 10.297C0.30157 10.4277 0.106191 10.6773 0.0335965 10.9467C0.005727 11.0502 -0.0056211 11.6028 0.00263963 12.4555L0.0156983 13.8012L0.141946 14.0237C0.220172 14.1616 0.345961 14.2987 0.472458 14.384L0.676682 14.5216H10.0078H19.339L19.5432 14.384C19.6698 14.2986 19.7955 14.1616 19.8738 14.0236L20 13.8009V12.3609V10.9208L19.8738 10.6982C19.7955 10.5602 19.6698 10.4231 19.5432 10.3378L19.339 10.2002L10.0512 10.1885L0.763295 10.1768L0.542132 10.297ZM1.24646 15.3203C1.24646 15.4905 1.35444 15.811 1.44097 15.8976C1.53934 15.9962 1.57235 16 2.32424 16C2.95944 16 3.12244 15.9869 3.19692 15.9301C3.27848 15.8678 3.41595 15.4926 3.41595 15.3321C3.41595 15.284 3.20125 15.2722 2.33121 15.2722C1.59675 15.2722 1.24646 15.2877 1.24646 15.3203ZM16.5997 15.3203C16.5997 15.4905 16.7077 15.811 16.7943 15.8976C16.8926 15.9962 16.9256 16 17.6775 16C18.3127 16 18.4757 15.9869 18.5502 15.9301C18.6318 15.8678 18.7692 15.4926 18.7692 15.3321C18.7692 15.284 18.5545 15.2722 17.6845 15.2722C16.95 15.2722 16.5997 15.2877 16.5997 15.3203Z" fill="white"/>
</svg>
