<svg width="50" height="34" viewBox="0 0 50 34" fill="none" xmlns="http://www.w3.org/2000/svg">
<path fill-rule="evenodd" clip-rule="evenodd" d="M0 10.3886V20.7772L1.77436 20.7397C3.74078 20.698 4.09523 20.5939 4.46441 19.9494C4.5643 19.775 5.75053 15.9582 7.10053 11.4677C9.70117 2.81656 9.65805 3.00314 9.22458 2.28547C8.61589 1.27775 3.83729 0 0.67733 0H0V10.3886ZM25.4237 2.42766C24.0324 2.66282 21.9787 3.80234 20.4085 5.21041C19.1043 6.37978 17.4918 8.43523 16.8148 9.79119C15.5647 12.2951 16.6194 14.2801 18.9423 13.7949C19.6045 13.6565 20.848 13.068 21.0834 12.7815C21.3975 12.3993 22.9842 11.2266 23.7371 10.8204C24.625 10.3412 25.796 9.94985 26.3416 9.94985C26.6325 9.94985 26.8204 10.0559 27.2574 10.4663C27.5597 10.7503 30.6674 13.6241 34.1631 16.8525C37.6589 20.0808 40.5492 22.7668 40.5859 22.8212C40.6711 22.9475 41.3298 22.74 41.9124 22.4036C42.3912 22.1272 43.5381 20.9136 43.5381 20.6835C43.5381 20.5011 38.6876 7.14763 38.5839 7.04439C38.4211 6.88251 27.5677 2.58707 27.034 2.47334C26.4803 2.35533 25.9416 2.34003 25.4237 2.42766ZM46.7161 2.64035C43.9924 2.92226 40.4129 3.93062 39.7847 4.59287C39.4248 4.97236 39.2854 5.55137 39.4283 6.0739C39.4873 6.29002 40.8403 10.0505 42.4347 14.4306C44.295 19.5411 45.42 22.4878 45.5747 22.6551C46.0506 23.1698 46.2679 23.2163 48.1939 23.2163H50V12.892V2.5677L48.5434 2.58482C47.7424 2.59424 46.92 2.61927 46.7161 2.64035ZM10.0269 5.32263C9.94407 5.60219 9.05561 8.56436 8.05275 11.9054L6.22934 17.9799L7.06059 18.9121C9.06621 21.1612 12.7254 24.6741 15.8369 27.3378C19.231 30.2434 23.7718 33.7484 24.3807 33.9326C25.5276 34.2798 26.6573 33.2312 26.4343 32.0263C26.3685 31.6713 26.0178 31.2682 23.8782 29.0893C22.3119 27.494 21.3983 26.4853 21.3983 26.3509C21.3983 26.1105 21.7086 25.784 21.9371 25.784C22.0202 25.784 23.3989 27.1129 25.0007 28.7372C26.8728 30.6355 28.0645 31.7621 28.3369 31.891C29.2462 32.3215 30.2986 32.01 30.8382 31.1505C31.1878 30.5939 31.2466 29.8766 30.993 29.2635C30.9079 29.0578 29.7039 27.7055 28.2388 26.1699C26.5809 24.4323 25.6356 23.3627 25.6356 23.2244C25.6356 23.1049 25.7548 22.9284 25.9004 22.832C26.1378 22.675 26.1905 22.6735 26.4084 22.8177C26.5422 22.9062 27.9841 24.3832 29.6128 26.1002C31.2737 27.8509 32.7467 29.3126 32.9672 29.4287C33.4037 29.6585 34.2375 29.703 34.7124 29.5217C35.3929 29.2621 36.0123 28.3478 36.0123 27.6028C36.0123 26.8217 35.7225 26.4668 32.4756 23.2721C30.7426 21.5668 29.2814 20.0898 29.2284 19.9899C29.0155 19.588 29.4816 19.1532 29.8891 19.3735C30.0145 19.4414 31.7355 21.0848 33.7135 23.0257C37.5891 26.8288 37.8518 27.0331 38.736 26.9324C40.0519 26.7826 40.8526 25.3261 40.2827 24.1191C40.1578 23.8545 37.9728 21.7644 33.4283 17.5624C29.7592 14.1699 26.6417 11.3016 26.5006 11.1884C26.2705 11.0039 26.1936 10.9961 25.7544 11.1129C24.606 11.4184 23.2155 12.2534 22.0196 13.3556C20.9144 14.3742 19.4564 14.9256 18.0711 14.8488C17.0506 14.7922 16.5106 14.5494 15.96 13.8996C14.4555 12.1245 15.3724 9.14188 18.475 5.71806L19.2939 4.81444H14.7358H10.1776L10.0269 5.32263Z" fill="#058FB9"/>
</svg>
