<svg width="58" height="42" viewBox="0 0 58 42" fill="none" xmlns="http://www.w3.org/2000/svg">
<path fill-rule="evenodd" clip-rule="evenodd" d="M27.7372 0.0395247C27.5813 0.0665133 27.071 0.144048 26.6033 0.211748C20.6716 1.07069 15.151 4.77362 11.9548 10.0371C9.04102 14.8356 8.15903 20.7768 9.55277 26.2188C10.5319 30.0419 12.2594 33.0894 15.0327 35.8864C17.8036 38.6809 20.9422 40.4859 24.6478 41.4163C26.6544 41.9202 27.358 42.0002 29.7783 42.0002C32.1966 42.0002 32.9026 41.9201 34.9019 41.4182C42.2641 39.5698 48.138 33.648 50.014 26.1825C51.8182 19.0029 49.7353 11.4019 44.5231 6.14546C41.4132 3.00918 37.7597 1.09299 33.2721 0.244569C32.3744 0.0748614 28.3865 -0.0728896 27.7372 0.0395247ZM0.92376 3.89031C0.70831 4.87048 -0.0525695 11.9017 0.00288063 12.4002C0.100173 13.2751 0.416659 13.9088 1.19716 14.7921C1.60175 15.25 2.09263 15.9811 2.36206 16.527C2.79659 17.4078 2.83106 17.5492 2.8796 18.65C2.92393 19.6559 2.88787 20.0055 2.63421 21.0271L2.33677 22.225V29.7506C2.33677 38.0541 2.304 37.669 3.04787 38.1122C3.75682 38.5345 4.6176 38.2998 5.06324 37.5627C5.27642 37.2101 5.28402 36.9334 5.28062 29.7067C5.27767 23.5195 5.24796 22.0869 5.10951 21.4729C5.01731 21.0641 4.90982 20.1578 4.87058 19.459C4.75651 17.4254 5.13899 16.2597 6.39155 14.8227C7.13508 13.9697 7.47787 13.2353 7.53083 12.3814C7.56575 11.8203 6.94639 5.67225 6.69216 4.05556C6.62605 3.63529 6.60972 3.62169 6.20955 3.65531C5.81834 3.68824 5.79532 3.71237 5.79532 4.09044C5.79532 5.57241 5.99092 12.5335 6.03719 12.6959C6.08606 12.8678 6.01281 12.896 5.51943 12.896H4.94486V8.25732V3.61848L4.57632 3.65439L4.20779 3.69019L4.17819 8.35029L4.1486 13.0104H3.75296H3.35733V8.31484V3.61917L2.9321 3.65474L2.50687 3.69019L2.47727 8.35029L2.44767 13.0104H1.92957H1.41159L1.47441 12.2957C1.50888 11.9026 1.5649 10.3973 1.59869 8.95067C1.63259 7.50404 1.69156 5.71582 1.72966 4.97672L1.79894 3.63301H1.3897C1.05757 3.63301 0.969685 3.6815 0.92376 3.89031ZM57.2055 3.94292C56.7481 4.44209 56.208 5.29738 55.862 6.07033C54.4913 9.13239 53.5827 15.0177 53.5991 20.7296L53.6045 22.6737L54.1916 22.9638C55.1587 23.4418 55.5995 24.3629 55.481 25.6585C55.4459 26.0422 55.3324 26.57 55.2288 26.8312C55.0607 27.255 55.0453 27.8391 55.086 32.2516C55.1359 37.6465 55.1378 37.6624 55.8037 38.1023C56.195 38.361 56.8853 38.3608 57.3199 38.1018C58.0628 37.6593 58.0173 38.865 57.9856 20.4256C57.957 3.7206 57.9565 3.69007 57.7273 3.65702C57.5913 3.63735 57.3789 3.75366 57.2055 3.94292ZM31.4008 8.21661C34.2366 8.64659 36.8055 9.94902 38.7636 11.9496C39.8339 13.043 40.2501 13.5931 40.9839 14.8837C41.6061 15.9779 42.2893 17.9605 42.4818 19.2301C42.6276 20.1908 42.6322 22.4454 42.4903 23.3026C41.6688 28.2648 38.2742 32.2924 33.6178 33.8295C28.7763 35.4277 23.5611 34.0833 20.0257 30.3255C17.9385 28.1072 16.8097 25.5637 16.5136 22.4132C15.9808 16.7423 19.2817 11.2764 24.5622 9.08596C25.0923 8.86605 25.7556 8.62372 26.0363 8.54744C27.6118 8.11906 29.848 7.98114 31.4008 8.21661Z" fill="#058FB9"/>
</svg>
