<svg width="24" height="24" viewBox="0 0 24 24" fill="none" xmlns="http://www.w3.org/2000/svg">
<path fill-rule="evenodd" clip-rule="evenodd" d="M5.17756 4.05363C4.74842 4.20051 4.32875 4.60764 4.13011 5.06971L4.0183 5.32982L4.00637 7.5989L3.99444 9.86798L4.12632 9.83923C4.19887 9.8234 4.57502 9.81048 4.96224 9.81048H5.66628V8.86349C5.66628 7.72795 5.70241 7.53972 5.9781 7.23917C6.28867 6.90051 6.29918 6.89919 8.67018 6.89919C11.0412 6.89919 11.0517 6.90051 11.3623 7.23917C11.638 7.53972 11.6741 7.72795 11.6741 8.86349V9.81048H12.0078H12.3416V8.86349C12.3416 7.72795 12.3777 7.53972 12.6534 7.23917C12.964 6.90051 12.9745 6.89919 15.3455 6.89919C17.7165 6.89919 17.727 6.90051 18.0376 7.23917C18.3133 7.53972 18.3494 7.72795 18.3494 8.86349V9.81048H19.0535C19.4407 9.81048 19.8168 9.8234 19.8894 9.83923L20.0213 9.86798L20.0093 7.59785L19.9974 5.32773L19.8625 5.02905C19.6978 4.66441 19.3621 4.30423 19.0275 4.13328L18.7875 4.01064L12.0704 4.00204C6.59811 3.99504 5.32078 4.00459 5.17756 4.05363ZM6.43623 7.73869C6.33381 7.85032 6.33381 7.85045 6.33381 8.83042V9.81048H8.67018H11.0065V8.83042C11.0065 7.85045 11.0065 7.85032 10.9041 7.73869L10.8017 7.62701H8.67018H6.53862L6.43623 7.73869ZM13.1116 7.73869C13.0091 7.85032 13.0092 7.85045 13.0092 8.83042V9.81048H15.3455H17.6819V8.83042C17.6819 7.85045 17.6819 7.85032 17.5795 7.73869L17.4771 7.62701H15.3455H13.214L13.1116 7.73869ZM3.84249 10.6041C3.41343 10.7508 2.99372 11.158 2.79504 11.6201C2.68966 11.8653 2.68244 11.9253 2.66934 12.6649L2.65549 13.4496H12.0078H21.3602L21.3464 12.6637C21.3326 11.8833 21.3315 11.8757 21.1975 11.5793C21.0329 11.2148 20.697 10.8545 20.3626 10.6837L20.1226 10.561L12.0704 10.5525C5.49393 10.5455 3.98609 10.555 3.84249 10.6041ZM2.54213 14.297C2.30157 14.4277 2.10619 14.6773 2.0336 14.9467C2.00573 15.0502 1.99438 15.6028 2.00264 16.4555L2.0157 17.8012L2.14195 18.0237C2.22017 18.1616 2.34596 18.2987 2.47246 18.384L2.67668 18.5216H12.0078H21.339L21.5432 18.384C21.6698 18.2986 21.7955 18.1616 21.8738 18.0236L22 17.8009V16.3609V14.9208L21.8738 14.6982C21.7955 14.5602 21.6698 14.4231 21.5432 14.3378L21.339 14.2002L12.0512 14.1885L2.76329 14.1768L2.54213 14.297ZM3.24646 19.3203C3.24646 19.4905 3.35444 19.811 3.44097 19.8976C3.53934 19.9962 3.57235 20 4.32424 20C4.95944 20 5.12244 19.9869 5.19692 19.9301C5.27848 19.8678 5.41595 19.4926 5.41595 19.3321C5.41595 19.284 5.20125 19.2722 4.33121 19.2722C3.59675 19.2722 3.24646 19.2877 3.24646 19.3203ZM18.5997 19.3203C18.5997 19.4905 18.7077 19.811 18.7943 19.8976C18.8926 19.9962 18.9256 20 19.6775 20C20.3127 20 20.4757 19.9869 20.5502 19.9301C20.6318 19.8678 20.7692 19.4926 20.7692 19.3321C20.7692 19.284 20.5545 19.2722 19.6845 19.2722C18.95 19.2722 18.5997 19.2877 18.5997 19.3203Z" fill="white"/>
</svg>
