<svg width="43" height="43" viewBox="0 0 43 43" fill="none" xmlns="http://www.w3.org/2000/svg">
<rect width="43" height="43" rx="21.5" fill="#7293AD"/>
<g clip-path="url(#clip0_1_3191)">
<path d="M34.4037 14.9635C34.2488 14.3907 33.9467 13.8685 33.5275 13.4489C33.1083 13.0293 32.5865 12.7269 32.0142 12.5719C29.919 12 21.4863 12 21.4863 12C21.4863 12 13.0532 12.0173 10.958 12.5892C10.3857 12.7442 9.86391 13.0466 9.44467 13.4662C9.02543 13.8859 8.72335 14.4081 8.5685 14.9809C7.93474 18.7068 7.68889 24.3842 8.5859 27.9611C8.74077 28.5338 9.04286 29.056 9.4621 29.4756C9.88133 29.8952 10.4031 30.1976 10.9754 30.3526C13.0706 30.9245 21.5035 30.9245 21.5035 30.9245C21.5035 30.9245 29.9363 30.9245 32.0314 30.3526C32.6037 30.1976 33.1255 29.8953 33.5448 29.4757C33.964 29.0561 34.2661 28.5339 34.421 27.9611C35.0895 24.2299 35.2954 18.556 34.4037 14.9635Z" fill="white"/>
<path d="M18.8027 25.5177L25.7983 21.4625L18.8027 17.4072V25.5177Z" fill="#7293AD"/>
</g>
<defs>
<clipPath id="clip0_1_3191">
<rect width="27" height="19" fill="white" transform="translate(8 12)"/>
</clipPath>
</defs>
</svg>
