<svg width="58" height="26" viewBox="0 0 58 26" fill="none" xmlns="http://www.w3.org/2000/svg">
<path fill-rule="evenodd" clip-rule="evenodd" d="M28.1116 0.404267C27.8393 0.682146 27.2658 1.84188 26.175 4.32105C25.3224 6.25819 24.591 7.87895 24.5494 7.92267C24.5079 7.96639 22.7154 8.17432 20.5665 8.38479C18.4174 8.59527 16.5411 8.81327 16.3969 8.86926C16.2526 8.92525 15.9987 9.11799 15.8325 9.29737C15.4378 9.72366 15.406 10.6534 15.7721 11.065C15.905 11.2144 17.3055 12.5084 18.8843 13.9404C21.2863 16.1193 21.7445 16.5873 21.6919 16.8087C21.0244 19.6181 20.0625 24.1982 20.0625 24.5672C20.0625 24.9573 20.1432 25.1338 20.4734 25.4656C20.8182 25.8121 20.9713 25.8785 21.4248 25.8785C21.9019 25.8785 22.3756 25.6432 25.4683 23.8685L28.9714 21.8585L32.4953 23.9448C35.9609 25.9966 36.0287 26.0301 36.5875 25.9668C37.3249 25.8833 37.8277 25.3677 37.8303 24.6925C37.8313 24.443 37.4716 22.5252 37.031 20.4305C36.2514 16.7253 36.2358 16.6164 36.4551 16.41C36.579 16.2933 37.904 15.1149 39.3996 13.791C40.8953 12.4674 42.2138 11.2434 42.3296 11.0712C42.6659 10.5713 42.6039 9.92649 42.1719 9.43206C41.9685 9.19912 41.7101 8.98099 41.5978 8.94723C41.4856 8.91359 39.7894 8.71927 37.8285 8.51559C35.8676 8.3118 34.0812 8.10448 33.8587 8.05481C33.4592 7.96567 33.4344 7.91879 31.8537 4.26033C30.4595 1.03338 30.2018 0.520859 29.8535 0.282816C29.2445 -0.133395 28.5939 -0.0879728 28.1116 0.404267ZM8.56777 8.8146C8.3217 8.94893 8.01944 9.51586 7.19435 11.3906C6.61242 12.7126 6.06711 13.8504 5.98239 13.9191C5.89767 13.9878 4.72101 14.1458 3.36753 14.2703C2.01405 14.3947 0.775141 14.5455 0.61428 14.6055C0.069818 14.8088 -0.156427 15.3987 0.114898 15.9081C0.177985 16.0265 1.10254 16.9087 2.16947 17.8685C3.2364 18.8285 4.10935 19.7047 4.10935 19.8157C4.10935 19.9269 3.86461 21.1308 3.56549 22.4914C3.26637 23.8519 3.02163 25.0381 3.02163 25.1275C3.02163 25.3722 3.69578 26 3.9584 26C4.08506 26 5.26704 25.3795 6.58499 24.621L8.98134 23.2421L11.3122 24.621C12.829 25.5183 13.7648 26 13.9916 26C14.3383 26 14.7593 25.6551 14.8979 25.2574C14.9355 25.1496 14.7277 23.9472 14.436 22.5855C14.1444 21.2238 13.9042 20.0177 13.9023 19.9054C13.9004 19.7917 14.7838 18.9097 15.8944 17.9167C17.8341 16.1823 18.0728 15.8847 17.9877 15.3065C17.9021 14.7242 17.5084 14.6042 14.8052 14.3364C13.4093 14.1981 12.1961 14.0469 12.1094 14.0003C12.0226 13.9538 11.4905 12.8499 10.927 11.5474C9.68836 8.68368 9.40604 8.35674 8.56777 8.8146ZM48.5715 8.8146C48.3254 8.94893 48.0232 9.51586 47.1981 11.3906C46.6161 12.7126 46.0713 13.85 45.9873 13.9182C45.9035 13.9863 44.7539 14.1405 43.4329 14.2605C40.7356 14.5058 40.3467 14.592 40.1336 14.9922C39.7588 15.6958 39.9236 15.8974 43.4981 19.1086L44.1414 19.6865L43.5817 22.2664C43.2737 23.6853 43.0244 24.9555 43.0274 25.0891C43.037 25.5038 43.5779 26 44.0201 26C44.1108 26 45.2627 25.379 46.58 24.6201L48.975 23.2402L51.2876 24.6187C52.6397 25.4247 53.7316 25.9979 53.9164 25.9987C54.4055 26.0007 54.8695 25.5681 54.8688 25.1106C54.8685 24.8984 54.651 23.6906 54.3853 22.4268C54.1198 21.1629 53.9025 20.0298 53.9025 19.909C53.9025 19.7778 54.7063 18.9724 55.8986 17.9091C57.0617 16.8716 57.9245 16.0092 57.9662 15.842C58.0715 15.4204 57.9246 14.9759 57.612 14.7701C57.4308 14.6508 56.4525 14.4995 54.7436 14.3266C53.3172 14.1822 52.09 14.0035 52.0165 13.9291C51.9432 13.8549 51.4374 12.7558 50.8927 11.4866C49.6915 8.68769 49.4059 8.3588 48.5715 8.8146Z" fill="#058FB9"/>
</svg>
