<svg width="113" height="114" viewBox="0 0 113 114" fill="none" xmlns="http://www.w3.org/2000/svg">
<g filter="url(#filter0_d_1_3170)">
<rect x="14.5" y="11" width="84" height="84" rx="42" fill="white"/>
<rect x="18.5" y="15" width="76" height="76" rx="38" fill="#D8E9FA"/>
<path fill-rule="evenodd" clip-rule="evenodd" d="M55.1116 40.4043C54.8393 40.6821 54.2658 41.8419 53.175 44.3211C52.3224 46.2582 51.591 47.8789 51.5494 47.9227C51.5079 47.9664 49.7154 48.1743 47.5665 48.3848C45.4174 48.5953 43.5411 48.8133 43.3969 48.8693C43.2526 48.9252 42.9987 49.118 42.8325 49.2974C42.4378 49.7237 42.406 50.6534 42.7721 51.065C42.905 51.2144 44.3055 52.5084 45.8843 53.9404C48.2863 56.1193 48.7445 56.5873 48.6919 56.8087C48.0244 59.6181 47.0625 64.1982 47.0625 64.5672C47.0625 64.9573 47.1432 65.1338 47.4734 65.4656C47.8182 65.8121 47.9713 65.8785 48.4248 65.8785C48.9019 65.8785 49.3756 65.6432 52.4683 63.8685L55.9714 61.8585L59.4953 63.9448C62.9609 65.9966 63.0287 66.0301 63.5875 65.9668C64.3249 65.8833 64.8277 65.3677 64.8303 64.6925C64.8313 64.443 64.4716 62.5252 64.031 60.4305C63.2514 56.7253 63.2358 56.6164 63.4551 56.41C63.579 56.2933 64.904 55.1149 66.3996 53.791C67.8953 52.4674 69.2138 51.2434 69.3296 51.0712C69.6659 50.5713 69.6039 49.9265 69.1719 49.4321C68.9685 49.1991 68.7101 48.981 68.5978 48.9472C68.4856 48.9136 66.7894 48.7193 64.8285 48.5156C62.8676 48.3118 61.0812 48.1045 60.8587 48.0548C60.4592 47.9657 60.4344 47.9188 58.8537 44.2603C57.4595 41.0334 57.2018 40.5209 56.8535 40.2828C56.2445 39.8666 55.5939 39.912 55.1116 40.4043ZM35.5678 48.8146C35.3217 48.9489 35.0194 49.5159 34.1943 51.3906C33.6124 52.7126 33.0671 53.8504 32.9824 53.9191C32.8977 53.9878 31.721 54.1458 30.3675 54.2703C29.014 54.3947 27.7751 54.5455 27.6143 54.6055C27.0698 54.8088 26.8436 55.3987 27.1149 55.9081C27.178 56.0265 28.1025 56.9087 29.1695 57.8685C30.2364 58.8285 31.1093 59.7047 31.1093 59.8157C31.1093 59.9269 30.8646 61.1308 30.5655 62.4914C30.2664 63.8519 30.0216 65.0381 30.0216 65.1275C30.0216 65.3722 30.6958 66 30.9584 66C31.0851 66 32.267 65.3795 33.585 64.621L35.9813 63.2421L38.3122 64.621C39.829 65.5183 40.7648 66 40.9916 66C41.3383 66 41.7593 65.6551 41.8979 65.2574C41.9355 65.1496 41.7277 63.9472 41.436 62.5855C41.1444 61.2238 40.9042 60.0177 40.9023 59.9054C40.9004 59.7917 41.7838 58.9097 42.8944 57.9167C44.8341 56.1823 45.0728 55.8847 44.9877 55.3065C44.9021 54.7242 44.5084 54.6042 41.8052 54.3364C40.4093 54.1981 39.1961 54.0469 39.1094 54.0003C39.0226 53.9538 38.4905 52.8499 37.927 51.5474C36.6884 48.6837 36.406 48.3567 35.5678 48.8146ZM75.5715 48.8146C75.3254 48.9489 75.0232 49.5159 74.1981 51.3906C73.6161 52.7126 73.0713 53.85 72.9873 53.9182C72.9035 53.9863 71.7539 54.1405 70.4329 54.2605C67.7356 54.5058 67.3467 54.592 67.1336 54.9922C66.7588 55.6958 66.9236 55.8974 70.4981 59.1086L71.1414 59.6865L70.5817 62.2664C70.2737 63.6853 70.0244 64.9555 70.0274 65.0891C70.037 65.5038 70.5779 66 71.0201 66C71.1108 66 72.2627 65.379 73.58 64.6201L75.975 63.2402L78.2876 64.6187C79.6397 65.4247 80.7316 65.9979 80.9164 65.9987C81.4055 66.0007 81.8695 65.5681 81.8688 65.1106C81.8685 64.8984 81.651 63.6906 81.3853 62.4268C81.1198 61.1629 80.9025 60.0298 80.9025 59.909C80.9025 59.7778 81.7063 58.9724 82.8986 57.9091C84.0617 56.8716 84.9245 56.0092 84.9662 55.842C85.0715 55.4204 84.9246 54.9759 84.612 54.7701C84.4308 54.6508 83.4525 54.4995 81.7436 54.3266C80.3172 54.1822 79.09 54.0035 79.0165 53.9291C78.9432 53.8549 78.4374 52.7558 77.8927 51.4866C76.6915 48.6877 76.4059 48.3588 75.5715 48.8146Z" fill="#058FB9"/>
</g>
<defs>
<filter id="filter0_d_1_3170" x="0.1" y="0.6" width="112.8" height="112.8" filterUnits="userSpaceOnUse" color-interpolation-filters="sRGB">
<feFlood flood-opacity="0" result="BackgroundImageFix"/>
<feColorMatrix in="SourceAlpha" type="matrix" values="0 0 0 0 0 0 0 0 0 0 0 0 0 0 0 0 0 0 127 0" result="hardAlpha"/>
<feOffset dy="4"/>
<feGaussianBlur stdDeviation="7.2"/>
<feComposite in2="hardAlpha" operator="out"/>
<feColorMatrix type="matrix" values="0 0 0 0 0 0 0 0 0 0 0 0 0 0 0 0 0 0 0.1 0"/>
<feBlend mode="normal" in2="BackgroundImageFix" result="effect1_dropShadow_1_3170"/>
<feBlend mode="normal" in="SourceGraphic" in2="effect1_dropShadow_1_3170" result="shape"/>
</filter>
</defs>
</svg>
