<svg width="81" height="80" viewBox="0 0 81 80" fill="none" xmlns="http://www.w3.org/2000/svg">
<g filter="url(#filter0_d_1_3210)">
<rect x="12" y="7.5" width="57" height="57" rx="28.5" fill="url(#paint0_linear_1_3210)"/>
<path d="M48.7812 45.875C46.6111 45.875 44.467 45.4021 42.349 44.4562C40.2309 43.5104 38.3038 42.1691 36.5677 40.4323C34.8316 38.6955 33.4906 36.7684 32.5448 34.651C31.599 32.5337 31.1257 30.3896 31.125 28.2188C31.125 27.9063 31.2292 27.6458 31.4375 27.4375C31.6458 27.2292 31.9063 27.125 32.2188 27.125H36.4375C36.6806 27.125 36.8976 27.2076 37.0885 27.3729C37.2795 27.5382 37.3924 27.7333 37.4271 27.9583L38.1042 31.6042C38.1389 31.8819 38.1302 32.1163 38.0781 32.3073C38.026 32.4983 37.9306 32.6632 37.7917 32.8021L35.2656 35.3542C35.6128 35.9965 36.025 36.617 36.5021 37.2156C36.9792 37.8142 37.5045 38.3917 38.0781 38.9479C38.6163 39.4861 39.1806 39.9854 39.7708 40.4458C40.3611 40.9062 40.9861 41.3271 41.6458 41.7083L44.0937 39.2604C44.25 39.1042 44.4542 38.9872 44.7062 38.9094C44.9583 38.8316 45.2056 38.8097 45.4479 38.8438L49.0417 39.5729C49.2847 39.6424 49.4844 39.7684 49.6406 39.951C49.7969 40.1337 49.875 40.3375 49.875 40.5625V44.7812C49.875 45.0938 49.7708 45.3542 49.5625 45.5625C49.3542 45.7708 49.0938 45.875 48.7812 45.875Z" fill="white"/>
</g>
<defs>
<filter id="filter0_d_1_3210" x="0.9" y="0.4" width="79.2" height="79.2" filterUnits="userSpaceOnUse" color-interpolation-filters="sRGB">
<feFlood flood-opacity="0" result="BackgroundImageFix"/>
<feColorMatrix in="SourceAlpha" type="matrix" values="0 0 0 0 0 0 0 0 0 0 0 0 0 0 0 0 0 0 127 0" result="hardAlpha"/>
<feOffset dy="4"/>
<feGaussianBlur stdDeviation="5.55"/>
<feComposite in2="hardAlpha" operator="out"/>
<feColorMatrix type="matrix" values="0 0 0 0 1 0 0 0 0 0.478431 0 0 0 0 0.00392157 0 0 0 0.5 0"/>
<feBlend mode="normal" in2="BackgroundImageFix" result="effect1_dropShadow_1_3210"/>
<feBlend mode="normal" in="SourceGraphic" in2="effect1_dropShadow_1_3210" result="shape"/>
</filter>
<linearGradient id="paint0_linear_1_3210" x1="12" y1="36" x2="69" y2="36" gradientUnits="userSpaceOnUse">
<stop stop-color="#FF7D02"/>
<stop offset="1" stop-color="#FCA10A"/>
</linearGradient>
</defs>
</svg>
