<svg width="114" height="114" viewBox="0 0 114 114" fill="none" xmlns="http://www.w3.org/2000/svg">
<g filter="url(#filter0_d_1_3834)">
<rect x="15" y="11" width="84" height="84" rx="42" fill="white"/>
<rect x="19" y="15" width="76" height="76" rx="38" fill="#D8E9FA"/>
<path fill-rule="evenodd" clip-rule="evenodd" d="M50.8287 31.115C49.7527 31.5154 48.9436 32.2461 48.4776 33.238C48.2427 33.738 48.2048 33.9556 48.2048 34.8026C48.2048 35.7039 48.2331 35.8439 48.5413 36.4688C48.9402 37.2775 49.59 37.9126 50.4126 38.2975C50.926 38.5377 51.1307 38.5724 52.0354 38.5724C52.9523 38.5724 53.1362 38.5403 53.6435 38.2915C56.0584 37.1078 56.5993 33.9313 54.7036 32.0658C53.9515 31.3256 53.2683 31.0425 52.1447 31.0053C51.5351 30.985 51.0748 31.0234 50.8287 31.115ZM50.1848 39.9145C48.1943 40.3287 46.5841 41.1299 45.1661 42.4118L44.612 42.9127L43.2752 49.5782C42.3946 53.9691 41.9604 56.3495 42.0028 56.5537C42.1632 57.3257 42.915 57.9488 43.6864 57.9488C44.1429 57.9488 44.8097 57.5904 45.032 57.2255C45.1417 57.0454 45.672 54.7174 46.3479 51.4487L47.4801 45.9734L47.5063 60.4867L47.5326 75H49.2404H50.9484V66.4744V57.9488H52.0354H53.1225V66.4744V75H54.7789H56.4354L56.4445 60.3515L56.4536 45.7029L57.5751 51.2164C58.1921 54.2489 58.7538 56.8675 58.8236 57.0357C58.9549 57.352 59.4385 57.7732 59.8001 57.8861C59.9357 57.9284 60.7125 59.154 62.0509 61.4375L64.0948 64.9243L64.0956 69.9621L64.0965 75H65.2353H66.3742V71.6931V68.3862H66.8918H67.4094V71.6931V75H68.5483H69.6871L69.6906 70.2722L69.6942 65.5443L70.3185 66.9911C71.0018 68.5743 71.2094 68.8684 71.7098 68.9621C72.3124 69.075 73 68.5049 73 67.8927C73 67.6074 71.0668 63.0255 70.7573 62.577C70.415 62.0812 69.5837 61.444 68.803 61.0791C68.2102 60.802 68.1064 60.7886 66.1702 60.739L64.1546 60.6873L63.0432 58.8272C62.1222 57.2857 61.931 56.894 61.9271 56.5407C61.9245 56.3062 61.3391 53.1672 60.6263 49.5652L59.3302 43.0161L58.6847 42.396C57.5168 41.2743 56.1199 40.5123 54.407 40.0624C53.3318 39.7799 51.1916 39.705 50.1848 39.9145ZM66.1665 54.7331C65.3963 54.9828 64.6337 55.6661 64.3388 56.3706C63.9847 57.2164 64.2158 58.4988 64.859 59.2583C65.5678 60.0952 67.0173 60.3714 68.0882 59.8736C70.129 58.925 70.1788 55.9605 68.1708 54.9541C67.6377 54.6869 66.646 54.5776 66.1665 54.7331Z" fill="#058FB9"/>
</g>
<defs>
<filter id="filter0_d_1_3834" x="0.6" y="0.6" width="112.8" height="112.8" filterUnits="userSpaceOnUse" color-interpolation-filters="sRGB">
<feFlood flood-opacity="0" result="BackgroundImageFix"/>
<feColorMatrix in="SourceAlpha" type="matrix" values="0 0 0 0 0 0 0 0 0 0 0 0 0 0 0 0 0 0 127 0" result="hardAlpha"/>
<feOffset dy="4"/>
<feGaussianBlur stdDeviation="7.2"/>
<feComposite in2="hardAlpha" operator="out"/>
<feColorMatrix type="matrix" values="0 0 0 0 0 0 0 0 0 0 0 0 0 0 0 0 0 0 0.1 0"/>
<feBlend mode="normal" in2="BackgroundImageFix" result="effect1_dropShadow_1_3834"/>
<feBlend mode="normal" in="SourceGraphic" in2="effect1_dropShadow_1_3834" result="shape"/>
</filter>
</defs>
</svg>
