<svg width="114" height="114" viewBox="0 0 114 114" fill="none" xmlns="http://www.w3.org/2000/svg">
<g filter="url(#filter0_d_1_3844)">
<rect x="15" y="11" width="84" height="84" rx="42" fill="white"/>
<rect x="19" y="15" width="76" height="76" rx="38" fill="#D8E9FA"/>
<path fill-rule="evenodd" clip-rule="evenodd" d="M55.197 31.0282C50.5327 31.515 46.7198 33.0398 43.1695 35.8382C42.0627 36.7105 40.3237 38.5062 39.4418 39.6874C37.1275 42.7868 35.7727 46.0186 35.1722 49.8711C34.941 51.3546 34.943 54.6246 35.176 56.1557C36.1795 62.7479 40.0039 68.4687 45.6969 71.8932C50.8368 74.985 57.157 75.8178 62.9968 74.1727C65.7239 73.4044 68.5001 71.9723 70.801 70.1467C71.7431 69.3992 73.4033 67.7398 74.1512 66.7981C77.4744 62.6135 79.1757 57.4963 78.9856 52.2565C78.7767 46.4966 76.541 41.3886 72.4601 37.3479C69.1068 34.0277 64.9117 31.9241 60.1994 31.2002C59.2744 31.0581 55.9922 30.9452 55.197 31.0282ZM60.3371 42.1947C61.4434 42.5799 62.2572 43.1014 63.1391 43.9904C64.0298 44.8881 64.5513 45.7778 64.8953 46.9864C65.164 47.9299 65.1839 49.6098 64.9371 50.508C64.276 52.9139 62.5583 54.6967 60.1535 55.4733C59.5973 55.6528 59.2614 55.6861 57.6523 55.7212L55.7936 55.7616V56.6238V57.486H59.1244C62.3963 57.486 62.4625 57.4896 62.8641 57.6924C63.0889 57.806 63.3661 58.0391 63.4801 58.2106C63.9065 58.8518 63.649 59.8364 62.9527 60.2275C62.6177 60.4157 62.4998 60.4218 59.2087 60.4218H55.8104L55.7791 61.7915C55.7512 63.0088 55.7263 63.19 55.5557 63.42C54.8807 64.3298 53.6201 64.3229 53.0827 63.4065C52.8711 63.0455 52.8564 62.9364 52.8564 61.7272V60.4339L51.3024 60.4049C49.6144 60.3735 49.4978 60.3399 49.0657 59.7614C48.592 59.1273 48.8847 58.0732 49.6403 57.6924C50.0118 57.5052 50.1804 57.486 51.4531 57.486H52.8564V56.6144V55.7428H51.3555C49.95 55.7428 49.8352 55.7297 49.5511 55.5364C48.8458 55.0566 48.648 54.3508 49.0183 53.6348C49.3752 52.9447 49.6256 52.858 51.3648 52.822L52.8564 52.7912V47.8759V42.9605L53.0819 42.5759C53.4838 41.8905 53.5282 41.8824 56.7574 41.9125C59.6021 41.939 59.603 41.9391 60.3371 42.1947ZM55.7936 48.8175V52.8241L57.5146 52.7927C59.2199 52.7614 59.2412 52.7585 59.8323 52.477C62.9463 50.9937 63.0082 46.7307 59.9377 45.2129L59.2461 44.871L57.5199 44.8409L55.7936 44.8108V48.8175Z" fill="#058FB9"/>
</g>
<defs>
<filter id="filter0_d_1_3844" x="0.6" y="0.6" width="112.8" height="112.8" filterUnits="userSpaceOnUse" color-interpolation-filters="sRGB">
<feFlood flood-opacity="0" result="BackgroundImageFix"/>
<feColorMatrix in="SourceAlpha" type="matrix" values="0 0 0 0 0 0 0 0 0 0 0 0 0 0 0 0 0 0 127 0" result="hardAlpha"/>
<feOffset dy="4"/>
<feGaussianBlur stdDeviation="7.2"/>
<feComposite in2="hardAlpha" operator="out"/>
<feColorMatrix type="matrix" values="0 0 0 0 0 0 0 0 0 0 0 0 0 0 0 0 0 0 0.1 0"/>
<feBlend mode="normal" in2="BackgroundImageFix" result="effect1_dropShadow_1_3844"/>
<feBlend mode="normal" in="SourceGraphic" in2="effect1_dropShadow_1_3844" result="shape"/>
</filter>
</defs>
</svg>
