<svg width="44" height="44" viewBox="0 0 44 44" fill="none" xmlns="http://www.w3.org/2000/svg">
<path fill-rule="evenodd" clip-rule="evenodd" d="M20.197 0.0282463C15.5327 0.514954 11.7198 2.03976 8.16951 4.83817C7.06272 5.71048 5.3237 7.50621 4.4418 8.68742C2.12754 11.7868 0.772658 15.0186 0.172179 18.8711C-0.0590358 20.3546 -0.0570165 23.6246 0.176034 25.1557C1.17946 31.7479 5.00391 37.4687 10.6969 40.8932C15.8368 43.985 22.157 44.8178 27.9968 43.1727C30.7239 42.4044 33.5001 40.9723 35.801 39.1467C36.7431 38.3992 38.4033 36.7398 39.1512 35.7981C42.4744 31.6135 44.1757 26.4963 43.9856 21.2565C43.7767 15.4966 41.541 10.3886 37.4601 6.34792C34.1068 3.02767 29.9117 0.924137 25.1994 0.200177C24.2744 0.0580634 20.9922 -0.054783 20.197 0.0282463ZM25.3371 11.1947C26.4434 11.5799 27.2572 12.1014 28.1391 12.9904C29.0298 13.8881 29.5513 14.7778 29.8953 15.9864C30.164 16.9299 30.1839 18.6098 29.9371 19.508C29.276 21.9139 27.5583 23.6967 25.1535 24.4733C24.5973 24.6528 24.2614 24.6861 22.6523 24.7212L20.7936 24.7616V25.6238V26.486H24.1244C27.3963 26.486 27.4625 26.4896 27.8641 26.6924C28.0889 26.806 28.3661 27.0391 28.4801 27.2106C28.9065 27.8518 28.649 28.8364 27.9527 29.2275C27.6177 29.4157 27.4998 29.4218 24.2087 29.4218H20.8104L20.7791 30.7915C20.7512 32.0088 20.7263 32.19 20.5557 32.42C19.8807 33.3298 18.6201 33.3229 18.0827 32.4065C17.8711 32.0455 17.8564 31.9364 17.8564 30.7272V29.4339L16.3024 29.4049C14.6144 29.3735 14.4978 29.3399 14.0657 28.7614C13.592 28.1273 13.8847 27.0732 14.6403 26.6924C15.0118 26.5052 15.1804 26.486 16.4531 26.486H17.8564V25.6144V24.7428H16.3555C14.95 24.7428 14.8352 24.7297 14.5511 24.5364C13.8458 24.0566 13.648 23.3508 14.0183 22.6348C14.3752 21.9447 14.6256 21.858 16.3648 21.822L17.8564 21.7912V16.8759V11.9605L18.0819 11.5759C18.4838 10.8905 18.5282 10.8824 21.7574 10.9125C24.6021 10.939 24.603 10.9391 25.3371 11.1947ZM20.7936 17.8175V21.8241L22.5146 21.7927C24.2199 21.7614 24.2412 21.7585 24.8323 21.477C27.9463 19.9937 28.0082 15.7307 24.9377 14.2129L24.2461 13.871L22.5199 13.8409L20.7936 13.8108V17.8175Z" fill="#058FB9"/>
</svg>
