<svg width="43" height="43" viewBox="0 0 43 43" fill="none" xmlns="http://www.w3.org/2000/svg">
<rect width="43" height="43" rx="21.5" fill="#7293AD"/>
<path d="M34.3854 15.4367C34.5781 14.7531 34.3854 14.25 33.4583 14.25H30.3906C29.6094 14.25 29.25 14.682 29.0573 15.1633C29.0573 15.1633 27.4948 19.1609 25.2865 21.7531C24.5729 22.5023 24.2448 22.743 23.8542 22.743C23.6615 22.743 23.3646 22.5023 23.3646 21.8187V15.4367C23.3646 14.6164 23.1458 14.25 22.5 14.25H17.6771C17.1875 14.25 16.8958 14.6328 16.8958 14.9883C16.8958 15.7648 18 15.9453 18.1146 18.1328V22.8797C18.1146 23.9187 17.9375 24.1102 17.5469 24.1102C16.5052 24.1102 13.974 20.0961 12.474 15.5023C12.1719 14.6109 11.875 14.25 11.0885 14.25H8.02083C7.14583 14.25 6.96875 14.682 6.96875 15.1633C6.96875 16.0164 8.01042 20.2547 11.8177 25.8547C14.3542 29.6773 17.9271 31.75 21.1771 31.75C23.1302 31.75 23.3698 31.2906 23.3698 30.4977C23.3698 26.8445 23.1927 26.5 24.1719 26.5C24.625 26.5 25.4062 26.7406 27.2292 28.5836C29.3125 30.7711 29.6563 31.75 30.8229 31.75H33.8906C34.7656 31.75 35.2083 31.2906 34.9531 30.3828C34.3698 28.4742 30.4271 24.5477 30.25 24.2852C29.7969 23.6727 29.9271 23.3992 30.25 22.8523C30.2552 22.8469 34 17.3125 34.3854 15.4367Z" fill="white"/>
</svg>
