<svg width="113" height="114" viewBox="0 0 113 114" fill="none" xmlns="http://www.w3.org/2000/svg">
<g filter="url(#filter0_d_1_3160)">
<rect x="14.5" y="11" width="84" height="84" rx="42" fill="white"/>
<rect x="18.5" y="15" width="76" height="76" rx="38" fill="#D8E9FA"/>
<path fill-rule="evenodd" clip-rule="evenodd" d="M31 50.3886V60.7772L32.7744 60.7397C34.7408 60.698 35.0952 60.5939 35.4644 59.9494C35.5643 59.775 36.7505 55.9582 38.1005 51.4677C40.7012 42.8166 40.6581 43.0031 40.2246 42.2855C39.6159 41.2778 34.8373 40 31.6773 40H31V50.3886ZM56.4237 42.4277C55.0324 42.6628 52.9787 43.8023 51.4085 45.2104C50.1043 46.3798 48.4918 48.4352 47.8148 49.7912C46.5647 52.2951 47.6194 54.2801 49.9423 53.7949C50.6045 53.6565 51.848 53.068 52.0834 52.7815C52.3975 52.3993 53.9842 51.2266 54.7371 50.8204C55.625 50.3412 56.796 49.9499 57.3416 49.9499C57.6325 49.9499 57.8204 50.0559 58.2574 50.4663C58.5597 50.7503 61.6674 53.6241 65.1631 56.8525C68.6589 60.0808 71.5492 62.7668 71.5859 62.8212C71.6711 62.9475 72.3298 62.74 72.9124 62.4036C73.3912 62.1272 74.5381 60.9136 74.5381 60.6835C74.5381 60.5011 69.6876 47.1476 69.5839 47.0444C69.4211 46.8825 58.5677 42.5871 58.034 42.4733C57.4803 42.3553 56.9416 42.34 56.4237 42.4277ZM77.7161 42.6403C74.9924 42.9223 71.4129 43.9306 70.7847 44.5929C70.4248 44.9724 70.2854 45.5514 70.4283 46.0739C70.4873 46.29 71.8403 50.0505 73.4347 54.4306C75.295 59.5411 76.42 62.4878 76.5747 62.6551C77.0506 63.1698 77.2679 63.2163 79.1939 63.2163H81V52.892V42.5677L79.5434 42.5848C78.7424 42.5942 77.92 42.6193 77.7161 42.6403ZM41.0269 45.3226C40.9441 45.6022 40.0556 48.5644 39.0528 51.9054L37.2293 57.9799L38.0606 58.9121C40.0662 61.1612 43.7254 64.6741 46.8369 67.3378C50.231 70.2434 54.7718 73.7484 55.3807 73.9326C56.5276 74.2798 57.6573 73.2312 57.4343 72.0263C57.3685 71.6713 57.0178 71.2682 54.8782 69.0893C53.3119 67.494 52.3983 66.4853 52.3983 66.3509C52.3983 66.1105 52.7086 65.784 52.9371 65.784C53.0202 65.784 54.3989 67.1129 56.0007 68.7372C57.8728 70.6355 59.0645 71.7621 59.3369 71.891C60.2462 72.3215 61.2986 72.01 61.8382 71.1505C62.1878 70.5939 62.2466 69.8766 61.993 69.2635C61.9079 69.0578 60.7039 67.7055 59.2388 66.1699C57.5809 64.4323 56.6356 63.3627 56.6356 63.2244C56.6356 63.1049 56.7548 62.9284 56.9004 62.832C57.1378 62.675 57.1905 62.6735 57.4084 62.8177C57.5422 62.9062 58.9841 64.3832 60.6128 66.1002C62.2737 67.8509 63.7467 69.3126 63.9672 69.4287C64.4037 69.6585 65.2375 69.703 65.7124 69.5217C66.3929 69.2621 67.0123 68.3478 67.0123 67.6028C67.0123 66.8217 66.7225 66.4668 63.4756 63.2721C61.7426 61.5668 60.2814 60.0898 60.2284 59.9899C60.0155 59.588 60.4816 59.1532 60.8891 59.3735C61.0145 59.4414 62.7355 61.0848 64.7135 63.0257C68.5891 66.8288 68.8518 67.0331 69.736 66.9324C71.0519 66.7826 71.8526 65.3261 71.2827 64.1191C71.1578 63.8545 68.9728 61.7644 64.4283 57.5624C60.7592 54.1699 57.6417 51.3016 57.5006 51.1884C57.2705 51.0039 57.1936 50.9961 56.7544 51.1129C55.606 51.4184 54.2155 52.2534 53.0196 53.3556C51.9144 54.3742 50.4564 54.9256 49.0711 54.8488C48.0506 54.7922 47.5106 54.5494 46.96 53.8996C45.4555 52.1245 46.3724 49.1419 49.475 45.7181L50.2939 44.8144H45.7358H41.1776L41.0269 45.3226Z" fill="#058FB9"/>
</g>
<defs>
<filter id="filter0_d_1_3160" x="0.1" y="0.6" width="112.8" height="112.8" filterUnits="userSpaceOnUse" color-interpolation-filters="sRGB">
<feFlood flood-opacity="0" result="BackgroundImageFix"/>
<feColorMatrix in="SourceAlpha" type="matrix" values="0 0 0 0 0 0 0 0 0 0 0 0 0 0 0 0 0 0 127 0" result="hardAlpha"/>
<feOffset dy="4"/>
<feGaussianBlur stdDeviation="7.2"/>
<feComposite in2="hardAlpha" operator="out"/>
<feColorMatrix type="matrix" values="0 0 0 0 0 0 0 0 0 0 0 0 0 0 0 0 0 0 0.1 0"/>
<feBlend mode="normal" in2="BackgroundImageFix" result="effect1_dropShadow_1_3160"/>
<feBlend mode="normal" in="SourceGraphic" in2="effect1_dropShadow_1_3160" result="shape"/>
</filter>
</defs>
</svg>
