<svg width="114" height="114" viewBox="0 0 114 114" fill="none" xmlns="http://www.w3.org/2000/svg">
<g filter="url(#filter0_d_1_3165)">
<rect x="15" y="11" width="84" height="84" rx="42" fill="white"/>
<rect x="19" y="15" width="76" height="76" rx="38" fill="#D8E9FA"/>
<path fill-rule="evenodd" clip-rule="evenodd" d="M33.0333 33.8373L33.0667 34.6746L35.8154 34.7324L38.5642 34.7901L38.9348 35.1677L39.3054 35.5452L39.3621 50.2395C39.4154 64.0532 39.4309 64.9602 39.6221 65.3746C39.9152 66.0105 40.6505 66.777 41.2672 67.089L41.8008 67.3592L58.9004 67.3899L76 67.4206V66.5526V65.6845H59.15C40.8471 65.6845 42.0238 65.7265 41.4038 65.051L41.1202 64.742L41.0635 50.0548L41.0068 35.3676L40.7421 34.8203C40.5965 34.5193 40.2491 34.0684 39.9702 33.8184C39.13 33.0655 38.789 33 35.7071 33H33L33.0333 33.8373ZM55.696 37.8396C54.6899 38.1651 53.7137 39.0358 53.3099 39.968C53.1715 40.2877 53.0411 40.8922 53.0045 41.3828L52.9409 42.2394H48.8126C44.9777 42.2394 44.6544 42.255 44.2634 42.4592C43.7313 42.737 43.3909 43.1076 43.1674 43.6521C43.0141 44.0258 42.9922 45.1955 42.9943 52.89C42.9967 61.2104 43.0085 61.7261 43.2066 62.1702C43.4933 62.8131 44.1526 63.3399 44.8567 63.4888C45.2448 63.5708 49.955 63.6 59.3827 63.579C74.8423 63.5445 73.7215 63.6032 74.5015 62.7877C75.2243 62.032 75.2164 62.1503 75.1811 52.5632C75.1523 44.7486 75.131 43.8807 74.9604 43.5676C74.707 43.1026 74.0881 42.5127 73.6957 42.362C73.4902 42.2831 71.7814 42.2394 68.9032 42.2394H64.4301V41.5675C64.4301 40.0691 63.6881 38.7864 62.447 38.1398L61.7815 37.793L58.8806 37.7704C57.285 37.7581 55.852 37.7893 55.696 37.8396ZM61.8912 39.7635C62.4863 40.2162 62.6619 40.5748 62.7096 41.4347L62.7543 42.2394H58.7147H54.6751V41.6224C54.6751 40.8074 55.0499 40.0769 55.6478 39.7262C56.081 39.4721 56.1672 39.4659 58.8356 39.4952C61.4036 39.5234 61.5982 39.5405 61.8912 39.7635ZM52.0662 52.8648V61.8732H50.9887H49.9111V52.8648V43.8563H50.9887H52.0662V52.8648ZM67.4927 52.8648V61.8732H66.4719H65.451V52.8648V43.8563H66.4719H67.4927V52.8648ZM44.0736 68.4628C42.7558 69.1322 42.1323 70.6118 42.5581 72.0589C42.6315 72.3083 42.8872 72.7387 43.1265 73.0154C43.7205 73.7025 44.36 74 45.2432 74C46.4284 74 47.2619 73.5085 47.8076 72.4875C48.5892 71.0254 47.9573 69.1368 46.4539 68.4414C45.8249 68.1505 44.6682 68.1609 44.0736 68.4628ZM71.138 68.3835C70.5381 68.6045 69.8724 69.2473 69.5789 69.8891C69.0493 71.0471 69.3369 72.4559 70.2739 73.2934C70.8743 73.8302 71.3333 74 72.1835 74C75.2368 74 76.123 69.7301 73.3369 68.4414C72.8091 68.1973 71.7212 68.1686 71.138 68.3835Z" fill="#058FB9"/>
</g>
<defs>
<filter id="filter0_d_1_3165" x="0.6" y="0.6" width="112.8" height="112.8" filterUnits="userSpaceOnUse" color-interpolation-filters="sRGB">
<feFlood flood-opacity="0" result="BackgroundImageFix"/>
<feColorMatrix in="SourceAlpha" type="matrix" values="0 0 0 0 0 0 0 0 0 0 0 0 0 0 0 0 0 0 127 0" result="hardAlpha"/>
<feOffset dy="4"/>
<feGaussianBlur stdDeviation="7.2"/>
<feComposite in2="hardAlpha" operator="out"/>
<feColorMatrix type="matrix" values="0 0 0 0 0 0 0 0 0 0 0 0 0 0 0 0 0 0 0.1 0"/>
<feBlend mode="normal" in2="BackgroundImageFix" result="effect1_dropShadow_1_3165"/>
<feBlend mode="normal" in="SourceGraphic" in2="effect1_dropShadow_1_3165" result="shape"/>
</filter>
</defs>
</svg>
