<svg width="44" height="44" viewBox="0 0 44 44" fill="none" xmlns="http://www.w3.org/2000/svg">
<path fill-rule="evenodd" clip-rule="evenodd" d="M20.3207 0.0168155C20.1786 0.0365308 19.6941 0.0945575 19.2442 0.145783C15.6233 0.557566 11.8173 2.10948 8.67655 4.45474C7.59152 5.26505 5.25328 7.60257 4.44272 8.68725C2.10464 11.8164 0.657397 15.3472 0.112516 19.2516C-0.0375053 20.3266 -0.0375053 23.6865 0.112516 24.7615C0.455532 27.2193 1.14647 29.4994 2.18654 31.6059C3.33711 33.936 4.39793 35.4569 6.11086 37.2318C8.0291 39.2196 9.86569 40.5642 12.3115 41.7715C14.524 42.8637 16.669 43.5154 19.2872 43.891C20.3129 44.0381 23.6906 44.0358 24.7558 43.8872C29.6227 43.2084 33.797 41.2018 37.2301 37.8907C40.9184 34.3334 43.1718 29.8896 43.8875 24.7615C44.0375 23.6865 44.0375 20.3266 43.8875 19.2516C43.5539 16.8611 42.8647 14.5586 41.8681 12.5047C40.6695 10.0347 39.5424 8.45911 37.5471 6.46433C35.541 4.45896 34.0999 3.42559 31.6024 2.20177C28.5474 0.704699 25.8704 0.0682131 22.3875 0.0107029C21.3929 -0.00565482 20.4628 -0.00298593 20.3207 0.0168155ZM24.2132 4.31656C28.1006 4.81866 31.5038 6.44375 34.3006 9.13321C37.1875 11.9093 38.9357 15.2164 39.6268 19.2085C39.7381 19.8519 39.7758 20.5591 39.7758 22.0065C39.7758 24.1319 39.6853 24.8839 39.2176 26.6448C37.6074 32.708 32.7048 37.6091 26.6397 39.2188C24.8782 39.6864 24.126 39.7768 22 39.7768C20.551 39.7768 19.8451 39.7391 19.2011 39.6276C14.1961 38.761 9.91805 36.0084 7.15463 31.8763C4.38734 27.7387 3.49505 22.5878 4.69901 17.7019C5.75286 13.4253 8.41681 9.64564 12.1231 7.16848C14.3705 5.66633 16.9795 4.68745 19.7178 4.31889C20.9021 4.15953 22.989 4.15841 24.2132 4.31656ZM19.7986 6.90048C17.5004 7.23598 15.0779 8.21288 13.1296 9.58985C12.08 10.3317 10.3215 12.0897 9.57943 13.139C8.19531 15.0962 7.10933 17.8196 6.88465 19.8973C6.8539 20.1814 6.80998 20.4816 6.78699 20.5645C6.74832 20.7038 6.85735 20.7151 8.23088 20.7151C9.55506 20.7151 9.75641 20.7344 10.0831 20.8925C10.4701 21.0798 10.8044 21.5961 10.8044 22.0065C10.8044 22.417 10.4701 22.9333 10.0831 23.1206C9.75641 23.2787 9.55506 23.2979 8.23088 23.2979C6.85735 23.2979 6.74832 23.3093 6.78699 23.4486C6.80998 23.5314 6.8539 23.8317 6.88465 24.1158C7.10933 26.1935 8.19531 28.9169 9.57943 30.8741C10.3215 31.9234 12.08 33.6814 13.1296 34.4232C15.0875 35.8069 17.8117 36.8926 19.8901 37.1172C20.1743 37.1479 20.4746 37.1918 20.5575 37.2148C20.6968 37.2535 20.7082 37.1445 20.7082 35.7714C20.7082 34.4476 20.7275 34.2463 20.8856 33.9198C21.073 33.5329 21.5894 33.1986 22 33.1986C22.4106 33.1986 22.927 33.5329 23.1144 33.9198C23.2725 34.2463 23.2918 34.4476 23.2918 35.7714C23.2918 37.1445 23.3032 37.2535 23.4425 37.2148C23.5254 37.1918 23.8257 37.1479 24.1099 37.1172C26.1883 36.8926 28.9125 35.8069 30.8704 34.4232C31.92 33.6814 33.6785 31.9234 34.4206 30.8741C35.8047 28.9169 36.8907 26.1935 37.1154 24.1158C37.1461 23.8317 37.19 23.5314 37.213 23.4486C37.2517 23.3093 37.1427 23.2979 35.7691 23.2979C34.4449 23.2979 34.2436 23.2787 33.9169 23.1206C33.5299 22.9333 33.1956 22.417 33.1956 22.0065C33.1956 21.5961 33.5299 21.0798 33.9169 20.8925C34.2436 20.7344 34.4449 20.7151 35.7691 20.7151C37.1427 20.7151 37.2517 20.7038 37.213 20.5645C37.19 20.4816 37.1461 20.1814 37.1154 19.8973C36.8189 17.1567 35.2866 13.9225 33.2244 11.685C30.8378 9.09533 27.3102 7.24184 24.1099 6.89591C23.8257 6.86518 23.5254 6.82127 23.4425 6.79828C23.3032 6.75963 23.2918 6.86862 23.2918 8.24172C23.2918 9.56549 23.2725 9.76677 23.1144 10.0933C22.927 10.4802 22.4106 10.8144 22 10.8144C21.5894 10.8144 21.073 10.4802 20.8856 10.0933C20.7276 9.76695 20.7082 9.5654 20.7082 8.24749C20.7082 7.43382 20.6791 6.7722 20.6436 6.77728C20.6081 6.78244 20.2278 6.8378 19.7986 6.90048ZM29.5023 13.8435C29.7155 13.9634 29.8994 14.1606 30.0092 14.3873C30.2122 14.8067 30.2236 15.0236 30.0626 15.4087C29.9044 15.7876 23.0367 22.8506 22.58 23.1042C22.1765 23.3284 21.9358 23.3454 21.535 23.1779C21.0977 22.9953 15.8474 18.3701 15.7153 18.0513C15.6501 17.8939 15.6228 17.6047 15.6482 17.3403C15.684 16.9674 15.7409 16.8491 15.9967 16.6147C16.3549 16.2865 16.8089 16.1771 17.2501 16.3127C17.4617 16.3777 18.2701 17.029 19.7178 18.3009C20.902 19.3413 21.894 20.1939 21.9223 20.1955C21.9506 20.1972 23.3443 18.7854 25.0195 17.058C26.6947 15.3307 28.1829 13.8594 28.3267 13.7884C28.697 13.6058 29.1137 13.6252 29.5023 13.8435Z" fill="#058FB9"/>
</svg>
