<svg width="52" height="53" viewBox="0 0 52 53" fill="none" xmlns="http://www.w3.org/2000/svg">
<g clip-path="url(#clip0_1_3206)">
<path d="M26 0C19.1059 0 12.4881 2.79368 7.61719 7.7616C2.74126 12.7315 0.00139526 19.4716 0 26.5C0 33.5254 2.74219 40.2705 7.61719 45.2384C12.4881 50.2063 19.1059 53 26 53C32.8941 53 39.5119 50.2063 44.3828 45.2384C49.2578 40.2705 52 33.5254 52 26.5C52 19.4746 49.2578 12.7295 44.3828 7.7616C39.5119 2.79368 32.8941 0 26 0Z" fill="url(#paint0_linear_1_3206)"/>
<path d="M11.7688 26.2201C19.3495 22.8546 24.4032 20.6358 26.9301 19.5636C34.1532 16.5025 35.6523 15.9708 36.6313 15.9528C36.8466 15.9493 37.326 16.0035 37.6388 16.2613C37.8988 16.4787 37.972 16.7726 38.0085 16.979C38.041 17.1853 38.0857 17.6552 38.0491 18.0221C37.6591 22.2124 35.9651 32.3809 35.1038 37.0743C34.7423 39.0602 34.0232 39.726 33.3285 39.791C31.8173 39.9326 30.6716 38.7741 29.2091 37.7973C26.922 36.2681 25.6301 35.3166 23.4079 33.8248C20.8404 32.1006 22.506 31.1528 23.9685 29.6042C24.3504 29.1989 31.0048 23.0314 31.1307 22.472C31.147 22.402 31.1632 22.1412 31.0088 22.0037C30.8585 21.8658 30.6351 21.913 30.4726 21.9503C30.241 22.0033 26.5888 24.4661 19.5038 29.3384C18.4679 30.0647 17.5295 30.4187 16.6845 30.4001C15.7582 30.3798 13.9707 29.8651 12.6423 29.4254C11.0173 28.8858 9.72133 28.6005 9.83508 27.6842C9.89196 27.2072 10.5379 26.719 11.7688 26.2201Z" fill="white"/>
</g>
<defs>
<linearGradient id="paint0_linear_1_3206" x1="2600" y1="0" x2="2600" y2="5300" gradientUnits="userSpaceOnUse">
<stop stop-color="#2AABEE"/>
<stop offset="1" stop-color="#229ED9"/>
</linearGradient>
<clipPath id="clip0_1_3206">
<rect width="52" height="53" fill="white"/>
</clipPath>
</defs>
</svg>
