<svg width="52" height="53" viewBox="0 0 52 53" fill="none" xmlns="http://www.w3.org/2000/svg">
<g clip-path="url(#clip0_1_3202)">
<path d="M1.10961 26.1828C1.10839 30.6358 2.25889 34.9839 4.44655 38.8163L0.900391 51.9106L14.1506 48.397C17.8155 50.4147 21.9217 51.4719 26.0944 51.4722H26.1054C39.8803 51.4722 51.0934 40.1362 51.0993 26.2027C51.1019 19.451 48.5044 13.1021 43.785 8.32551C39.0664 3.54935 32.7908 0.917632 26.1043 0.914551C12.3278 0.914551 1.1155 12.25 1.10981 26.1828" fill="url(#paint0_linear_1_3202)"/>
<path d="M0.217344 26.1746C0.215922 30.7879 1.40766 35.2914 3.67331 39.2611L0 52.8248L13.7254 49.1852C17.5071 51.2705 21.765 52.3699 26.0977 52.3716H26.1089C40.378 52.3716 51.9939 40.6278 52 26.1956C52.0024 19.2012 49.3114 12.6241 44.4234 7.67637C39.5348 2.72929 33.0348 0.00287597 26.1089 0C11.8373 0 0.223031 11.7422 0.217344 26.1746ZM8.3913 38.5774L7.87881 37.7547C5.72447 34.2904 4.58737 30.287 4.589 26.1762C4.59347 14.1804 14.2468 4.42077 26.117 4.42077C31.8654 4.42324 37.2677 6.6895 41.3311 10.8013C45.3942 14.9135 47.63 20.3799 47.6285 26.1939C47.6233 38.1898 37.9697 47.9506 26.1089 47.9506H26.1003C22.2383 47.9486 18.4507 46.8997 15.1474 44.9175L14.3613 44.446L6.21644 46.6057L8.3913 38.5774Z" fill="url(#paint1_linear_1_3202)"/>
<path d="M4.20989 39.1925L4.15593 39.3918L0.709018 52.1195L13.5972 48.7019L13.7911 48.6505L13.9668 48.7474C17.6747 50.7919 21.8495 51.8699 26.0977 51.8716C26.0978 51.8716 26.0978 51.8716 26.0979 51.8716H26.1089C40.0966 51.8716 51.494 40.3569 51.5 26.1953C51.5024 19.3318 48.8627 12.8813 44.0677 8.02777C39.2725 3.17522 32.9004 0.502875 26.1089 0.5L4.20989 39.1925ZM4.20989 39.1925L4.10756 39.0132M4.20989 39.1925L4.10756 39.0132M4.10756 39.0132C1.88531 35.1196 0.715948 30.7016 0.717344 26.1748M4.10756 39.0132L0.717344 26.1748M0.717344 26.1748C0.722925 12.0131 12.1186 0.500114 26.1087 0.5L0.717344 26.1748ZM7.45422 38.0187L7.45441 38.0191L7.85174 38.6569L5.73383 46.475L5.50735 47.311L6.34459 47.089L14.2853 44.9835L14.8902 45.3462C18.2712 47.3751 22.1478 48.4485 26.1001 48.4506H26.1003H26.1089C38.2512 48.4506 48.1231 38.4607 48.1285 26.1941V26.194C48.13 20.2494 45.843 14.6564 41.6867 10.4499L41.6867 10.4499C37.5302 6.2437 32.0001 3.9233 26.1172 3.92077H26.117C13.9655 3.92077 4.09357 13.9093 4.089 26.176C4.08734 30.3794 5.25013 34.4744 7.45422 38.0187Z" stroke="#0E2137" stroke-opacity="0.1"/>
<path d="M19.638 15.2319C19.1533 14.1425 18.6433 14.1205 18.1824 14.1014C17.805 14.085 17.3735 14.0862 16.9425 14.0862C16.5111 14.0862 15.8101 14.2503 15.2176 14.9046C14.6244 15.5595 12.9531 17.1421 12.9531 20.361C12.9531 23.5798 15.2714 26.6908 15.5946 27.1277C15.9181 27.5638 20.07 34.3807 26.6456 37.0032C32.1105 39.1825 33.2226 38.7491 34.4086 38.6398C35.5949 38.5309 38.2363 37.0576 38.7752 35.5298C39.3145 34.0023 39.3145 32.6929 39.1528 32.4193C38.9911 32.1467 38.5597 31.9829 37.9127 31.6559C37.2658 31.3289 34.085 29.7459 33.4921 29.5275C32.899 29.3093 32.4677 29.2004 32.0363 29.8556C31.6049 30.5096 30.366 31.9829 29.9884 32.4193C29.6112 32.8566 29.2336 32.9111 28.5868 32.5838C27.9395 32.2555 25.856 31.5655 23.3842 29.3368C21.461 27.6026 20.1626 25.4611 19.7852 24.806C19.4078 24.1519 19.7448 23.7973 20.0692 23.4713C20.3599 23.1782 20.7164 22.7073 21.0401 22.3254C21.3627 21.9434 21.4704 21.6707 21.6861 21.2344C21.902 20.7977 21.7939 20.4156 21.6325 20.0884C21.4704 19.7611 20.2132 16.5254 19.638 15.2319Z" fill="white"/>
</g>
<defs>
<linearGradient id="paint0_linear_1_3202" x1="2510.84" y1="5100.52" x2="2510.84" y2="0.914551" gradientUnits="userSpaceOnUse">
<stop stop-color="#1FAF38"/>
<stop offset="1" stop-color="#60D669"/>
</linearGradient>
<linearGradient id="paint1_linear_1_3202" x1="2600" y1="5282.48" x2="2600" y2="0" gradientUnits="userSpaceOnUse">
<stop stop-color="#F9F9F9"/>
<stop offset="1" stop-color="white"/>
</linearGradient>
<clipPath id="clip0_1_3202">
<rect width="52" height="53" fill="white"/>
</clipPath>
</defs>
</svg>
