<svg width="25" height="25" viewBox="0 0 25 25" fill="none" xmlns="http://www.w3.org/2000/svg">
<path d="M20.7812 21.875C18.6111 21.875 16.467 21.4021 14.349 20.4562C12.2309 19.5104 10.3038 18.1691 8.56771 16.4323C6.8316 14.6955 5.49062 12.7684 4.54479 10.651C3.59896 8.53368 3.12569 6.38958 3.125 4.21875C3.125 3.90625 3.22917 3.64583 3.4375 3.4375C3.64583 3.22917 3.90625 3.125 4.21875 3.125H8.4375C8.68056 3.125 8.89757 3.20764 9.08854 3.37292C9.27951 3.53819 9.39236 3.73333 9.42708 3.95833L10.1042 7.60417C10.1389 7.88194 10.1302 8.11632 10.0781 8.30729C10.026 8.49826 9.93055 8.66319 9.79167 8.80208L7.26562 11.3542C7.61285 11.9965 8.025 12.617 8.50208 13.2156C8.97917 13.8142 9.50451 14.3917 10.0781 14.9479C10.6163 15.4861 11.1806 15.9854 11.7708 16.4458C12.3611 16.9062 12.9861 17.3271 13.6458 17.7083L16.0937 15.2604C16.25 15.1042 16.4542 14.9872 16.7062 14.9094C16.9583 14.8316 17.2056 14.8097 17.4479 14.8438L21.0417 15.5729C21.2847 15.6424 21.4844 15.7684 21.6406 15.951C21.7969 16.1337 21.875 16.3375 21.875 16.5625V20.7812C21.875 21.0938 21.7708 21.3542 21.5625 21.5625C21.3542 21.7708 21.0938 21.875 20.7812 21.875Z" fill="white"/>
</svg>
