<svg width="245" height="223" viewBox="0 0 245 223" fill="none" xmlns="http://www.w3.org/2000/svg">
<path fill-rule="evenodd" clip-rule="evenodd" d="M123.431 1.65415L121.935 3.61464L123.651 5.65113L125.367 7.68761L127.114 5.66114L128.86 3.63467L127.494 1.86446C125.613 -0.573192 125.149 -0.596762 123.431 1.65415ZM116.289 10.3815C114.15 12.0622 114.225 14.9629 116.519 19.3115C118.529 23.1218 118.449 24.5462 116.086 27.0934C114.593 28.7028 110.75 30.7045 110.203 30.1579C110.05 30.0047 110.211 29.3437 110.562 28.6893C110.912 28.0348 111.199 26.74 111.199 25.8116C111.199 22.4549 108.491 21.6956 105.779 24.2923L104.126 25.8752L102.472 24.2923C98.4265 20.4184 95.1546 24.598 98.2544 29.6801L99.4521 31.6435L106.357 31.4474C114.934 31.2035 117.121 30.278 119.746 25.7792L121.514 22.7489L125.507 22.7288C129.33 22.71 129.527 22.7789 130.113 24.3294C130.99 26.651 133.521 29.1664 136.25 30.4288C138.087 31.2789 140.043 31.5228 145.111 31.5328L151.616 31.5458L152.667 29.7679C154.577 26.535 153.811 22.7094 151.253 22.7094C150.67 22.7094 149.361 23.4081 148.346 24.2617L146.501 25.8139L144.803 24.188C141.605 21.1265 138.482 23.6802 140.023 28.0966C140.382 29.1264 140.568 30.0777 140.435 30.2097C139.946 30.6992 135.436 27.9918 134.267 26.5061C132.261 23.9583 132.246 22.9963 134.16 19.6078C136.09 16.1894 136.657 12.1877 135.42 10.699C135.021 10.2183 133.864 9.6428 132.85 9.42012C131.159 9.049 130.77 9.27992 128.205 12.1806L125.406 15.3458L122.678 12.2531C119.685 8.86108 118.619 8.54886 116.289 10.3815ZM102.736 15.3004C101.866 16.6271 101.882 16.8244 102.963 18.0986L104.126 19.4694L105.289 18.0986C106.369 16.8244 106.385 16.6271 105.516 15.3004C105 14.5152 104.375 13.8731 104.126 13.8731C103.876 13.8731 103.251 14.5152 102.736 15.3004ZM145.298 15.2503C144.387 16.5039 144.395 16.683 145.418 18.0297L146.513 19.4694L147.81 18.1823C149.052 16.9511 149.065 16.8285 148.117 15.3841C146.913 13.5467 146.547 13.529 145.298 15.2503ZM85.5008 19.1442C83.3276 21.2331 81.8587 22.1374 80.1959 22.409C76.7201 22.9763 75.2435 23.7433 75.2435 24.9809C75.2435 25.5965 75.6591 26.4442 76.1666 26.8654C77.804 28.2239 78.914 31.0244 78.545 32.8677C78.2449 34.3675 78.341 34.5536 79.2246 34.179C81.3153 33.2924 82.6056 33.5646 82.8001 34.933C83.0311 36.5601 83.8387 36.6408 84.6539 35.1192C85.5698 33.409 85.4608 33.0903 82.9062 30.0006C81.6094 28.4324 80.5484 26.5774 80.5484 25.8781C80.5484 24.1185 82.2708 22.1993 84.3798 21.609C87.0864 20.8502 87.9093 21.4758 87.9676 24.3365C88.0042 26.1291 88.4262 27.2825 89.4412 28.3688C91.2342 30.2875 93.6503 31.5581 95.4021 31.5039C96.4619 31.4715 96.2268 31.2265 94.3247 30.3805C89.9959 28.456 88.8117 24.925 91.1883 21.0287C92.3035 19.2014 92.3241 18.9481 91.4677 17.6415C90.1208 15.5873 88.8736 15.9013 85.5008 19.1442ZM159.684 16.9658C158.557 18.3896 158.54 19.483 159.62 20.8744C160.968 22.6098 161.035 26.109 159.755 27.9346C159.23 28.6845 157.705 29.7856 156.366 30.3805C154.473 31.2223 154.232 31.4715 155.283 31.5039C157.458 31.5711 161.199 29.3278 162.228 27.3385C162.763 26.3046 163.078 24.6304 162.948 23.5153C162.722 21.5813 162.771 21.5312 164.876 21.5312C167.727 21.5312 170.142 23.4169 170.142 25.6419C170.142 26.6911 169.365 28.241 168.048 29.815C166.481 31.6901 166 32.7658 166.133 34.0959C166.337 36.1377 167.784 37.0266 167.784 35.1109C167.784 33.5227 168.906 33.0968 170.996 33.8903C172.584 34.4936 172.631 34.4576 172.33 32.8836C171.975 31.0303 173.022 28.1096 174.471 26.9084C176.833 24.9509 175.278 23.1901 170.502 22.4102C168.84 22.1392 167.386 21.2384 165.212 19.133C162.176 16.1929 160.74 15.6297 159.684 16.9658ZM61.4273 24.4378C60.8596 25.064 60.0344 26.5886 59.5935 27.8251C56.8273 35.5769 61.1891 42.9924 73.1216 50.8225C80.4748 55.6478 80.1877 55.3951 79.5664 56.5043C79.112 57.3155 78.4807 57.2265 74.2244 55.7538C68.5517 53.7904 61.8393 49.7592 57.2228 45.5419C53.4216 42.0698 52.8687 42.2961 52.854 47.3275C52.8375 53.0069 55.8536 56.8849 62.1193 59.2412C65.601 60.5508 75.9031 62.7675 78.506 62.7675C79.5328 62.7675 79.959 63.0909 79.959 63.8697C79.959 66.4346 67.8792 65.8479 58.8868 62.8465C56.0039 61.8845 53.9975 61.478 53.9586 61.8485C53.4534 66.6862 56.9399 70.9942 62.2873 72.1405C65.4372 72.8156 68.2069 72.6448 76.4224 71.2687C82.5496 70.2425 82.1187 70.2378 82.5395 71.3341C83.3182 73.3629 72.6424 76.3166 64.5312 76.3166H59.7904L60.1847 77.9366C60.4011 78.8273 61.3548 80.343 62.3032 81.3044C63.8115 82.8325 64.5271 83.0799 68.0148 83.2761C72.7043 83.5406 77.1527 82.201 82.4629 78.9251C87.3558 75.9066 88.8435 77.2974 84.8218 81.1283C81.9366 83.8776 78.1223 86.0048 73.9173 87.21C72.053 87.7449 70.5281 88.4324 70.5281 88.7381C70.5281 89.8916 74.3977 91.6288 76.973 91.6306C81.5322 91.6347 85.9618 88.638 90.2959 82.6175C91.0922 81.5112 91.8036 81.0876 92.4497 81.3356C93.3385 81.6767 93.3409 81.9224 92.4768 84.456C91.8314 86.3506 90.333 88.4236 87.6647 91.1151C85.5339 93.2653 83.3925 95.1722 82.9062 95.353C82.1676 95.6281 82.2106 95.8343 83.1661 96.6031C84.81 97.9262 89.1347 97.7777 91.4989 96.3174C93.7983 94.8971 96.7932 89.3455 97.3838 85.4092C97.6007 83.9642 97.9797 82.6576 98.2267 82.505C99.3837 81.7904 104.701 84.0973 106.428 86.0637L108.252 88.1396V81.4246V74.7101L105.229 75.2592C96.7902 76.792 90.1509 71.0054 92.2634 63.9587C92.6312 62.7322 93.3285 61.4002 93.8136 60.9979C95.233 59.8209 94.8416 59.0586 91.7388 56.9556C84.9933 52.3819 73.8124 39.9049 66.158 28.4071C64.2872 25.5971 62.6898 23.2985 62.6079 23.2985C62.526 23.2985 61.9943 23.811 61.4273 24.4378ZM184.037 29.2106C176.027 41.0454 165.01 53.2478 158.788 57.1771C157.253 58.1455 155.998 59.1258 155.997 59.3543C155.996 59.5829 156.683 60.7758 157.524 62.0052C158.79 63.8579 159.005 64.7262 158.784 67.082C158.184 73.4907 152.228 76.7614 144.354 75.0059L142.439 74.5788L142.485 81.7804C142.511 85.7414 142.678 88.5844 142.855 88.0984C143.35 86.7453 145.513 84.5368 147.154 83.7085C149.508 82.5209 152.471 82.1197 152.727 82.9539C152.85 83.3533 153.529 85.6631 154.236 88.0866C155.261 91.5988 156.034 93.0043 158.039 95.0084C160.323 97.2906 160.826 97.5238 163.468 97.5238C165.156 97.5238 166.861 97.1521 167.524 96.6396C168.656 95.766 168.655 95.7477 167.496 95.0591C163.068 92.427 157.08 84.2511 157.94 82.0102C158.543 80.4402 159.292 80.8396 161.574 83.9459C164.81 88.3517 169.025 91.1976 172.773 91.5086C175.881 91.7661 178.589 90.8777 180.047 89.1211C180.609 88.4442 179.969 88.0607 176.429 86.9508C169.608 84.813 162.319 79.1867 164.085 77.4223C164.57 76.9369 165.688 77.3369 168.334 78.9439C177.527 84.5244 186.788 84.9367 189.767 79.8983C191.651 76.7101 191.371 76.5139 184.436 76.1587C175.534 75.7022 166.859 72.8822 168.7 71.0419C169.068 70.6749 171.049 70.7903 174.275 71.3682C177.027 71.8607 181.4 72.3096 183.994 72.365C191.754 72.5311 196.029 69.6116 197.01 63.4768C197.451 60.7263 197.326 60.6291 194.944 61.8603C192.614 63.0644 184.703 64.9737 180.296 65.3955C175.119 65.8915 170.623 65.2417 170.855 64.0323C170.99 63.3366 172.577 62.8423 177.102 62.0871C190.302 59.8857 195.797 56.8083 197.6 50.6087C198.088 48.9327 198.317 46.8108 198.111 45.8877C197.201 41.8195 197.386 41.8472 193.814 45.2333C188.233 50.5251 182.635 53.8835 175.484 56.2292C173.412 56.909 171.627 57.4657 171.518 57.4657C171.41 57.4657 171.326 56.8696 171.331 56.1403C171.339 55.137 172.294 54.2481 175.258 52.4838C180.915 49.1171 186.733 44.4097 188.644 41.6545C192.008 36.8028 192.822 31.4533 190.853 27.1276C188.785 22.5857 188.453 22.6876 184.037 29.2106ZM118.195 34.764C118.046 34.9142 113.162 35.1887 107.343 35.3737C95.668 35.7454 93.2825 36.361 91.8549 39.3677C91.2525 40.6372 91.2272 41.456 91.7418 43.0153C92.3925 44.9858 92.4284 45.0035 93.5177 43.9149C95.0019 42.4315 98.1112 41.9131 100.946 42.676C108.436 44.6919 114.146 52.2511 114.146 60.1526C114.146 63.7537 113.41 66.0399 111.646 67.9221L110.404 69.2475H125.251H140.098L138.468 66.7869C137.067 64.6709 136.842 63.7425 136.859 60.1596C136.875 56.6646 137.176 55.4174 138.727 52.4231C140.649 48.7101 143.919 45.3093 147.266 43.5432C150.064 42.0669 155.486 42.0975 157.147 43.5985C158.237 44.5829 158.506 44.6265 158.97 43.8931C159.809 42.5665 159.632 39.608 158.626 38.1736C157.327 36.3203 154.472 35.746 144.797 35.3925C140.096 35.2211 134.878 34.9313 133.201 34.7492C130.276 34.4311 130.166 34.4712 130.493 35.723C130.681 36.4405 131.898 38.0587 133.197 39.3188L135.559 41.6098L134.267 43.205C129.954 48.5316 127.772 53.2089 126.372 60.1313L125.572 64.0883L124.326 59.0433C122.825 52.9662 120.268 47.4312 117.437 44.1305L115.347 41.6934L117.989 39.0531C120.763 36.2809 121.375 34.4912 119.549 34.4912C118.955 34.4912 118.346 34.6137 118.195 34.764ZM99.7964 45.5832C98.4041 47.1207 98.5026 48.2518 99.9608 47.4718C100.588 47.1366 102.113 46.8533 103.35 46.8427L105.599 46.8226L104.208 45.6645C102.471 44.2177 101.056 44.1917 99.7964 45.5832ZM146.86 45.5437L145.091 46.5346L147.744 46.9027C149.203 47.1048 150.887 47.4824 151.487 47.741C152.529 48.1905 152.535 48.1275 151.619 46.359C150.545 44.2819 149.447 44.094 146.86 45.5437ZM118.272 70.8428C118.272 71.1797 118.673 72.5906 119.163 73.9779C119.653 75.3652 119.984 76.5581 119.9 76.6282C119.815 76.6983 118.884 77.1937 117.83 77.7298C115.278 79.0264 115.196 81.2172 117.653 82.4867C118.61 82.981 119.936 83.3857 120.6 83.3857C121.265 83.3857 121.809 83.7527 121.809 84.2004C121.809 85.3108 119.655 85.7903 117.812 85.0899C116.687 84.6622 116.087 84.7276 115.469 85.3456C114.757 86.0572 114.756 86.5214 115.46 88.6032C116.094 90.4789 116.44 90.8718 116.982 90.3305C117.367 89.9452 117.706 89.0863 117.733 88.4224C117.772 87.4999 117.901 87.6047 118.28 88.866C118.641 90.0665 118.47 91.1905 117.653 92.9896C117.035 94.3492 116.524 96.1913 116.517 97.082C116.503 98.8758 115.551 99.2911 115.168 97.6711C114.991 96.923 114.793 97.1121 114.446 98.3598C114.054 99.773 114.206 100.271 115.301 101.158C116.035 101.751 117.095 102.237 117.657 102.237C118.22 102.237 119.537 102.664 120.584 103.186C121.94 103.861 123.574 104.066 126.252 103.896C128.322 103.764 130.156 103.517 130.327 103.345C130.625 103.047 119.212 71.1685 118.58 70.537C118.411 70.368 118.272 70.5052 118.272 70.8428ZM124.756 75.1384C124.756 75.9437 124.363 76.3166 123.514 76.3166C122.776 76.3166 122.376 76.6153 122.53 77.053C127.797 92.0971 131.671 102.224 132.161 102.229C133.067 102.24 135.754 99.2239 136.224 97.6682C136.722 96.0199 135.317 95.3212 133.326 96.2278C132.014 96.8252 131.933 96.7274 131.561 94.0965C131.347 92.5796 131.037 90.873 130.871 90.3045C130.206 88.0289 135.021 88.3281 135.943 90.6197C136.455 91.891 136.471 91.8851 136.507 90.3988C136.55 88.6233 134.921 86.9202 133.178 86.9202C132.42 86.9202 131.834 86.4242 131.611 85.5948C131.058 83.5318 131.178 81.0293 131.829 81.0293C132.153 81.0293 132.418 81.692 132.418 82.502C132.418 84.2852 133.318 84.4189 134.202 82.7677C136.069 79.2821 133.174 76.4444 129.579 78.2364C127.267 79.3893 126.221 78.4491 126.814 75.7517C127.154 74.2041 127.04 73.9602 125.981 73.9602C125.149 73.9602 124.756 74.3378 124.756 75.1384ZM121.566 92.7275C121.394 93.0049 121.492 94.0653 121.785 95.0838C122.23 96.6343 122.155 96.9359 121.325 96.943C120.781 96.9471 119.738 97.1109 119.009 97.3059C117.166 97.7995 117.337 96.7804 119.512 94.3045C121.202 92.3811 122.303 91.5351 121.566 92.7275ZM102.983 94.4765C98.4147 96.9253 97.6591 102.869 101.134 109.023C103.279 112.821 103.17 112.946 96.7113 114.079C93.6946 114.608 92.1709 115.222 90.8635 116.435C88.2022 118.904 84.243 120.467 80.5484 120.509L77.3066 120.545L80.1635 123.173C82.5354 125.354 83.4137 125.8 85.34 125.8C89.6534 125.8 93.5195 123.12 94.1838 119.67C94.4455 118.311 99.0843 116.603 104.037 116.043L107.428 115.66L107.398 112.436C107.362 108.643 108.374 107.538 111.88 107.538C114.68 107.538 117.748 110.077 119.772 114.069L121.195 116.877L118.113 117.877C110.604 120.311 102.609 125.87 101.169 129.655C100.502 131.409 101.19 133.173 103.163 134.771C105.15 136.379 105.725 136.044 107.405 132.303C109.18 128.349 114.142 123.193 118.128 121.161C122.243 119.063 124.267 119.814 120.279 121.96C117.587 123.409 113.116 128.335 111.714 131.397C110.141 134.831 110.296 137.072 112.23 138.858C115.208 141.608 115.653 141.428 116.441 137.158C117.515 131.331 122.04 122.307 123.273 123.534C123.486 123.746 123.143 125.602 122.511 127.658C121.879 129.714 121.039 133.332 120.643 135.699C119.777 140.876 120.366 142.85 123.322 144.676C125.161 145.812 125.402 145.83 127.079 144.963C131.086 142.892 131.493 139.561 128.913 129.924C128.263 127.494 127.724 125.001 127.717 124.383C127.704 123.325 127.765 123.318 128.805 124.257C130.487 125.78 133.576 132.944 134.365 137.158C135.148 141.333 135.61 141.526 138.46 138.871C140.412 137.054 140.547 134.834 138.923 131.26C137.534 128.202 133.167 123.443 130.368 121.936C128.178 120.758 127.687 119.909 129.196 119.909C131.031 119.909 135.967 122.924 138.849 125.803C140.49 127.443 142.549 130.342 143.454 132.286C144.354 134.22 145.449 135.805 145.886 135.809C146.998 135.817 150.101 132.371 150.101 131.128C150.101 127.381 141.111 120.493 133.094 118.097C131.682 117.675 130.396 116.986 130.234 116.565C129.823 115.495 132.622 110.913 134.81 109.073C137.157 107.1 140.691 106.969 142.512 108.79C143.557 109.834 143.71 110.504 143.434 112.834L143.103 115.625L146.455 115.991C152.549 116.655 153.997 117.321 155.606 120.197C157.014 122.716 157.026 122.822 155.926 123.172C154.07 123.76 153.014 125.977 153.101 129.105C153.145 130.69 152.886 132.732 152.526 133.644C151.349 136.619 151.827 136.717 154.44 134.034C155.853 132.584 157.842 130.78 158.86 130.026C160.283 128.972 160.711 128.207 160.711 126.714C160.711 124.915 160.879 124.746 162.992 124.408C165.864 123.949 166.893 122.725 166.817 119.853C166.771 118.111 166.976 117.611 167.713 117.667C169.945 117.837 170.73 117.469 171.076 116.092C171.385 114.862 171.622 114.727 172.58 115.24C173.669 115.822 175.604 115.454 179.278 113.967C179.927 113.705 180.985 113.407 181.63 113.306C184.205 112.9 183.108 111.354 178.48 108.864C173.2 106.023 171.864 105.826 170.172 107.643C169.514 108.348 168.831 108.78 168.653 108.602C168.057 108.007 169.616 105.435 170.917 104.863C172.71 104.077 172.941 101.434 171.316 100.297C170.628 99.8154 169.53 99.5615 168.876 99.7323C167.602 100.065 166.577 102.05 167.045 103.278C167.392 104.191 166.002 107.72 165.494 107.214C165.295 107.014 165.132 105.746 165.132 104.396V101.942L159.827 99.191C155.883 97.145 154.414 96.6319 154.099 97.1904C153.697 97.9038 154.38 100.75 155.485 102.965C155.766 103.527 155.996 104.516 155.996 105.16C155.996 105.805 156.679 106.781 157.515 107.328C158.81 108.176 158.898 108.401 158.105 108.844C156.921 109.506 156.918 111.033 158.095 112.714C158.931 113.905 158.93 114.06 158.089 114.383C157.057 114.779 150.183 113.618 148.913 112.834C148.252 112.425 148.416 111.706 149.794 108.984C151.906 104.812 152.398 100.253 151.022 97.5939C149.807 95.2458 146.88 93.4055 144.354 93.4026L142.439 93.4002V97.5533C142.439 101.894 141.464 104.751 139.76 105.405C139.235 105.606 137.121 105.771 135.061 105.771C130.868 105.771 128.627 106.439 126.672 108.269L125.345 109.511L124.019 108.269C122.062 106.437 119.822 105.771 115.614 105.771C112.493 105.771 111.574 105.53 110.207 104.356C108.701 103.061 108.542 102.531 108.344 98.1701C108.129 93.4526 108.11 93.4002 106.56 93.4002C105.697 93.4002 104.088 93.8844 102.983 94.4765ZM82.6498 100.663C81.7615 101.312 81.6955 101.665 82.2631 102.725C82.6651 103.475 83.5151 104.004 84.3208 104.004C85.0765 104.004 86.3591 104.526 87.1713 105.165C88.5919 106.282 88.6855 106.285 89.6086 105.266C91.7895 102.857 89.9204 99.8802 86.227 99.8802C84.8489 99.8802 83.2386 100.232 82.6498 100.663ZM73.2601 102.869C71.7529 104.053 71.2743 105.98 72.1579 107.303C74.4024 110.662 81.1379 109.072 81.1379 105.182C81.1379 101.808 76.3841 100.413 73.2601 102.869ZM82.4346 106.865C82.104 107.812 81.0141 109.071 80.0121 109.663C77.8925 110.914 77.7657 111.393 79.3307 112.23C82.2814 113.809 86.4628 112.392 87.2892 109.535C87.7077 108.088 86.1999 106.059 84.2966 105.508C83.2816 105.215 82.9174 105.48 82.4346 106.865ZM89.5373 107.621C89.1323 108.029 88.8005 108.937 88.8005 109.638C88.8005 111.412 86.1121 113.916 83.7278 114.364C80.9109 114.891 78.858 114.228 77.0944 112.22C76.2562 111.265 75.0779 110.484 74.4761 110.484C73.5501 110.484 73.4446 110.779 73.79 112.398C75.0909 118.49 76.9217 119.83 82.5537 118.81C86.6532 118.068 90.3973 115.79 90.9166 113.723C91.1193 112.914 91.058 111.043 90.7798 109.566C90.3743 107.413 90.1279 107.027 89.5373 107.621ZM162.141 110.467C163.5 110.984 163.582 111.185 162.969 112.529C162.115 114.404 161.683 114.396 160.172 112.476C158.368 110.183 159.189 109.345 162.141 110.467ZM169.183 114.918C169.613 116.041 169.025 116.289 166.753 115.943C164.706 115.632 164.482 115.193 165.447 113.39C166.013 112.334 166.16 112.318 167.461 113.17C168.233 113.675 169.007 114.463 169.183 114.918ZM94.2139 123.147C93.7405 124.185 92.3159 125.239 89.9133 126.329L86.3208 127.959L89.2426 129.215C90.8494 129.906 93.2478 130.644 94.5716 130.856C96.9211 131.232 97.0007 131.188 97.8996 129.038C99.0678 126.244 99.1185 126.494 96.8486 123.845L94.9211 121.595L94.2139 123.147ZM155.887 126.686C155.518 127.498 155.101 128.048 154.962 127.909C154.546 127.493 155.443 125.211 156.023 125.211C156.318 125.211 156.257 125.875 155.887 126.686ZM158.085 128.656C157.155 129.567 157.139 129.521 157.847 127.943C158.263 127.015 158.711 126.577 158.842 126.969C158.972 127.362 158.632 128.121 158.085 128.656ZM56.9712 170.866C56.9712 178.05 58.0139 179.348 58.2726 172.486L58.4447 167.92L60.6975 171.602C61.9371 173.627 63.1307 175.281 63.35 175.277C63.5698 175.274 64.678 173.657 65.8126 171.684L67.8757 168.096L68.0484 172.614C68.171 175.82 68.4279 177.064 68.9325 176.897C69.4105 176.738 69.6988 174.696 69.8119 170.671C70.0206 163.226 69.348 162.925 65.8097 168.878L63.3146 173.075L62.2737 171.382C61.7014 170.45 60.536 168.56 59.6843 167.184C58.832 165.807 57.8736 164.68 57.5529 164.68C57.2069 164.68 56.9712 167.187 56.9712 170.866ZM73.4753 172.338C73.4753 174.93 73.7187 177.051 74.0158 177.051C74.3134 177.051 75.9008 175.527 77.5441 173.664L80.5319 170.276L80.5402 173.369C80.5467 175.722 80.7601 176.462 81.4326 176.462C82.1399 176.462 82.3167 175.578 82.3167 172.044C82.3167 166.575 81.699 166.403 78.1312 170.88L75.5383 174.133L75.3614 170.88C75.2329 168.511 74.9524 167.626 74.3299 167.626C73.6544 167.626 73.4753 168.614 73.4753 172.338ZM85.8533 172.387C85.8533 175.933 86.0414 177.088 86.5901 176.907C86.9957 176.775 87.41 175.824 87.5114 174.797C87.6888 173.006 87.8061 172.927 90.3112 172.927C92.9189 172.927 92.9265 172.934 92.9265 175.038C92.9265 176.464 93.1658 177.07 93.6633 176.905C94.1461 176.746 94.4596 175.105 94.5722 172.144C94.7119 168.471 94.581 167.626 93.8725 167.626C93.3279 167.626 92.9318 168.319 92.8163 169.476C92.6424 171.22 92.4874 171.331 90.1261 171.391C87.6794 171.453 87.6211 171.41 87.6211 169.54C87.6216 168.231 87.3422 167.626 86.7375 167.626C86.0243 167.626 85.8533 168.547 85.8533 172.387ZM97.7646 172.144C97.8595 174.629 98.2114 176.752 98.5467 176.863C98.8821 176.974 100.341 175.617 101.789 173.846C103.236 172.076 104.619 170.615 104.863 170.6C105.106 170.584 105.305 172.051 105.305 173.86C105.305 176.229 105.511 177.081 106.041 176.905C106.524 176.746 106.838 175.105 106.95 172.144C107.166 166.487 106.544 166.332 102.415 171.013L99.4268 174.4L99.4185 171.013C99.412 168.357 99.214 167.626 98.5014 167.626C97.7463 167.626 97.6213 168.391 97.7646 172.144ZM110.712 168.989C108.248 171.611 109.571 175.883 113.123 176.774C114.658 177.159 117.683 176.203 117.683 175.333C117.683 174.469 116.635 174.007 116.215 174.685C115.704 175.512 112.768 175.438 111.906 174.577C111.037 173.708 110.99 171.472 111.809 169.943C112.462 168.724 115.556 168.337 116.209 169.393C116.744 170.258 117.683 170.11 117.683 169.161C117.683 167.166 112.545 167.039 110.712 168.989ZM118.862 168.215C118.862 168.539 119.657 168.804 120.63 168.804H122.398V172.598C122.398 174.685 122.663 176.556 122.988 176.756C123.359 176.986 123.577 175.584 123.577 172.962V168.804H125.345C126.318 168.804 127.114 168.539 127.114 168.215C127.114 167.878 125.345 167.626 122.988 167.626C120.63 167.626 118.862 167.878 118.862 168.215ZM128.925 169.178C127.232 171.329 127.392 173.296 129.426 175.329C131.226 177.128 132.889 177.471 134.815 176.441C136.724 175.42 136.095 174.824 133.427 175.124C131.552 175.336 130.693 175.161 130.101 174.448C129.015 173.141 129.283 173.005 133.319 172.805C137.342 172.607 137.951 171.769 135.934 169.206C134.186 166.985 130.662 166.97 128.925 169.178ZM139.492 173.811C139.492 178.917 139.646 179.996 140.376 179.996C140.994 179.996 141.26 179.374 141.26 177.935C141.26 175.674 141.38 175.58 143.096 176.498C144.785 177.401 147.993 176.204 148.836 174.355C149.81 172.217 149.676 170.938 148.29 169.178C147.361 167.997 146.543 167.626 144.871 167.626C143.663 167.626 142.356 167.944 141.967 168.332C141.417 168.882 141.26 168.882 141.26 168.332C141.26 167.944 140.862 167.626 140.376 167.626C139.646 167.626 139.492 168.705 139.492 173.811ZM152.482 168.915C150.16 171.406 151.383 175.916 154.599 176.723C156.201 177.125 159.532 176.128 159.532 175.247C159.532 174.451 158.463 174.041 158.065 174.685C157.861 175.015 156.921 175.284 155.975 175.284C153.642 175.284 152.186 173.134 153.024 170.93C153.769 168.97 155.104 168.431 157.228 169.233C159.104 169.941 159.831 169.578 158.866 168.416C157.792 167.124 153.866 167.431 152.482 168.915ZM160.122 168.215C160.122 168.539 160.905 168.804 161.863 168.804C163.601 168.804 163.605 168.813 163.779 172.733C163.889 175.221 164.224 176.752 164.69 176.906C165.233 177.085 165.427 176.052 165.427 172.976V168.804H167.195C168.168 168.804 168.963 168.539 168.963 168.215C168.963 167.874 167.097 167.626 164.543 167.626C161.989 167.626 160.122 167.874 160.122 168.215ZM170.732 172.377V177.128L174.021 176.828C178.63 176.408 180.203 174.819 178.095 172.712C177.544 172.162 177.432 171.685 177.8 171.458C178.736 170.879 178.493 168.378 177.462 167.983C176.949 167.786 175.225 167.626 173.63 167.626H170.732V172.377ZM181.974 169.178C180.592 170.933 180.454 172.218 181.418 174.332C182.753 177.262 187.472 177.712 189.312 175.085C190.559 173.307 190.407 170.206 189.004 168.804C187.201 167.002 183.532 167.197 181.974 169.178ZM134.658 169.511C136.164 171.016 135.431 171.749 132.418 171.749C130.393 171.749 129.471 171.509 129.471 170.983C129.471 169.758 130.762 168.804 132.418 168.804C133.261 168.804 134.269 169.122 134.658 169.511ZM146.818 169.729C147.886 170.798 148.009 172.51 147.134 174.144C145.916 176.417 141.26 175.056 141.26 172.427C141.26 169.483 144.834 167.747 146.818 169.729ZM176.976 169.482C177.519 170.361 175.611 171.749 173.861 171.749C172.802 171.749 172.5 171.422 172.5 170.276C172.5 168.991 172.757 168.804 174.528 168.804C175.644 168.804 176.745 169.109 176.976 169.482ZM188.361 170.651C189.138 172.041 189.123 172.363 188.218 173.743C187.53 174.792 186.686 175.284 185.572 175.284C183.502 175.284 182.52 174.312 182.52 172.262C182.52 168.758 186.664 167.615 188.361 170.651ZM177.215 174.037C177.215 174.724 176.71 175.237 175.889 175.385C173.754 175.769 172.5 175.28 172.5 174.063C172.5 173.131 172.922 172.927 174.858 172.927C176.774 172.927 177.215 173.135 177.215 174.037ZM0.815377 189.476C-0.811455 190.422 0.189982 191.161 2.11507 190.435C3.39296 189.952 4.23113 189.963 5.35459 190.474C7.63392 191.512 7.31504 192.956 4.80642 192.956C3.67176 192.956 2.74341 193.221 2.74341 193.545C2.74341 193.869 3.67176 194.135 4.80642 194.135C6.25996 194.135 6.86943 194.399 6.86943 195.031C6.86943 196.473 4.3166 197.333 2.21292 196.6C0.154625 195.882 -0.851536 196.692 0.919708 197.64C4.29539 199.445 8.63773 197.141 8.63773 193.545C8.63773 189.944 4.08319 187.574 0.815377 189.476ZM11.1181 193.351C11.2306 196.312 11.5442 197.953 12.027 198.113C12.5244 198.277 12.7638 197.671 12.7638 196.245C12.7638 193.421 14.2391 193.435 16.631 196.282C17.6236 197.464 18.7547 198.324 19.1449 198.194C19.5941 198.044 19.1886 197.152 18.0386 195.758C16.1589 193.478 16.1772 193.059 18.2567 190.75C18.9121 190.022 19.244 189.227 18.9946 188.982C18.7447 188.738 17.6767 189.533 16.621 190.747C14.1312 193.613 12.7638 193.666 12.7638 190.895C12.7638 189.43 12.5009 188.833 11.8549 188.833C11.0998 188.833 10.9748 189.599 11.1181 193.351ZM22.6597 189.636C18.9799 192.43 21.1637 198.258 25.8904 198.258C28.0518 198.258 30.4467 195.722 30.4467 193.433C30.4467 189.878 25.5108 187.471 22.6597 189.636ZM32.8044 193.545C32.8044 197.342 32.9766 198.258 33.6886 198.258C34.3063 198.258 34.5727 197.636 34.5727 196.196C34.5727 194.146 34.5869 194.135 37.2252 194.135C39.8635 194.135 39.8776 194.146 39.8776 196.196C39.8776 197.636 40.144 198.258 40.7618 198.258C41.4738 198.258 41.6459 197.342 41.6459 193.545C41.6459 189.749 41.4738 188.833 40.7618 188.833C40.144 188.833 39.8776 189.455 39.8776 190.895C39.8776 192.945 39.8635 192.956 37.2252 192.956C34.5869 192.956 34.5727 192.945 34.5727 190.895C34.5727 189.455 34.3063 188.833 33.6886 188.833C32.9766 188.833 32.8044 189.749 32.8044 193.545ZM45.95 189.717C42.6273 192.043 44.4964 198.181 48.544 198.239C51.981 198.289 54.492 195.32 53.6957 192.149C52.9335 189.113 48.7079 187.787 45.95 189.717ZM56.3817 193.594C56.3817 197.144 56.5692 198.293 57.1185 198.108C57.524 197.971 57.8971 197.088 57.9484 196.145C57.9997 195.201 58.0734 193.766 58.1129 192.956C58.1748 191.67 58.387 191.838 59.788 194.279C60.6698 195.817 61.5799 197.077 61.8092 197.078C62.0385 197.079 62.9669 195.821 63.8722 194.282L65.5179 191.484L65.6947 194.871C65.9618 199.985 66.9915 198.932 66.9915 193.545C66.9915 187.896 66.2736 187.49 63.8628 191.779C62.9527 193.398 62.0244 194.72 61.7998 194.715C61.5758 194.711 60.6628 193.385 59.771 191.77C57.3101 187.31 56.3817 187.81 56.3817 193.594ZM70.5281 193.545C70.5281 199.329 71.1034 199.532 74.7072 195.018C76.1301 193.236 77.4958 191.778 77.7422 191.778C77.9891 191.778 78.1907 193.236 78.1907 195.018C78.1907 196.8 78.456 198.258 78.7801 198.258C79.1238 198.258 79.3696 196.295 79.3696 193.545C79.3696 190.153 79.1633 188.841 78.6328 188.862C78.2279 188.877 76.7024 190.351 75.2435 192.138L72.5911 195.386L72.4143 192.11C72.2852 189.721 72.0058 188.833 71.3828 188.833C70.7073 188.833 70.5281 189.821 70.5281 193.545ZM81.7273 190.535C81.7273 193.314 83.5257 194.996 86.375 194.883C88.7038 194.79 88.8005 194.857 88.8005 196.571C88.8005 197.739 89.0551 198.271 89.5373 198.107C90.5099 197.779 90.5216 189.308 89.5502 188.984C89.1418 188.848 88.8029 189.644 88.6909 191.005C88.5193 193.085 88.3578 193.265 86.5046 193.442C84.2601 193.656 83.5186 192.917 83.5045 190.453C83.4986 189.409 83.1809 188.833 82.6115 188.833C82.0297 188.833 81.7273 189.415 81.7273 190.535ZM94.4797 190.054C90.0177 193.561 95.7422 200.774 100.328 197.423C101.876 196.292 101.108 195.691 99.2157 196.552C97.9632 197.123 97.4221 197.072 96.1926 196.266C93.8024 194.701 94.4225 194.135 98.5261 194.135C102.638 194.135 102.877 193.901 101.495 191.232C100.087 188.509 97.085 188.006 94.4797 190.054ZM105.679 190.054C101.367 193.443 106.356 200.259 111.238 197.649C111.865 197.313 112.378 196.752 112.378 196.401C112.378 195.787 111.418 195.902 109.309 196.771C108.64 197.048 107.824 196.707 106.869 195.752C104.043 192.928 106.772 188.88 110.391 190.528C112.213 191.358 112.852 190.997 111.8 189.731C110.737 188.45 107.501 188.621 105.679 190.054ZM114.858 193.351C114.971 196.312 115.284 197.953 115.767 198.113C116.264 198.277 116.504 197.671 116.504 196.245C116.504 193.421 117.979 193.435 120.371 196.282C121.364 197.464 122.495 198.324 122.885 198.194C123.334 198.044 122.929 197.152 121.779 195.758C119.899 193.478 119.917 193.059 121.997 190.75C122.652 190.022 122.984 189.227 122.735 188.982C122.485 188.738 121.417 189.533 120.361 190.747C117.871 193.613 116.504 193.666 116.504 190.895C116.504 189.43 116.241 188.833 115.595 188.833C114.84 188.833 114.715 189.599 114.858 193.351ZM125.947 190.292C121.762 194.744 128.417 201.132 132.74 196.812C133.652 195.901 134.187 194.693 134.187 193.545C134.187 189.378 128.805 187.252 125.947 190.292ZM136.544 193.545C136.544 197.342 136.717 198.258 137.429 198.258C138.13 198.258 138.313 197.408 138.313 194.135V190.011H140.965C142.424 190.011 143.618 189.746 143.618 189.422C143.618 189.094 142.046 188.833 140.081 188.833H136.544V193.545ZM145.76 190.054C143.674 191.693 143.626 194.785 145.654 196.812C147.444 198.601 149.983 198.69 152.085 197.037C155.416 194.419 153.263 188.833 148.923 188.833C148.037 188.833 146.614 189.382 145.76 190.054ZM161.301 195.313C161.301 199.24 161.533 201.793 161.89 201.793C162.214 201.793 162.479 200.732 162.479 199.436C162.479 197.2 163.159 196.385 163.953 197.669C164.653 198.8 167.802 198.294 169.284 196.812C171.075 195.024 171.164 192.486 169.51 190.385C168.199 188.72 165.714 188.322 163.619 189.442C162.834 189.863 162.479 189.863 162.479 189.442C162.479 189.107 162.214 188.833 161.89 188.833C161.533 188.833 161.301 191.385 161.301 195.313ZM173.826 189.223C173.421 189.387 173.089 189.89 173.089 190.342C173.089 191.005 173.375 191.034 174.563 190.493C176.324 189.69 178.984 190.634 178.984 192.06C178.984 192.724 178.325 192.956 176.449 192.956C173.613 192.956 172.5 193.73 172.5 195.705C172.5 197.898 176.613 199.213 178.276 197.551C178.826 197.002 178.984 197.002 178.984 197.551C178.984 197.94 179.412 198.258 179.936 198.258C181.401 198.258 180.832 190.779 179.281 189.645C178.196 188.852 175.301 188.628 173.826 189.223ZM183.503 189.226C182.639 190.089 183.224 190.405 185.596 190.356C187.523 190.317 188.131 190.539 188.293 191.342C188.446 192.099 188.014 192.477 186.69 192.741C184.489 193.181 184.299 193.987 186.396 193.987C187.23 193.987 188.225 194.304 188.606 194.69C189.794 195.895 187.349 197.201 184.731 196.76C183.425 196.54 182.52 196.624 182.52 196.965C182.52 198.658 187.958 198.714 189.634 197.039C190.766 195.908 190.788 195.719 189.936 194.419C189.371 193.557 189.241 192.879 189.6 192.658C190.586 192.049 190.246 190.086 189.043 189.442C187.77 188.762 184.11 188.618 183.503 189.226ZM193.13 193.587V198.4L196.713 198.141C200.174 197.891 201.351 197.219 201.373 195.483C201.378 195.091 201.021 194.433 200.579 194.02C199.971 193.452 199.934 193.017 200.427 192.228C201.617 190.324 200.193 189.149 196.458 188.951L193.13 188.774V193.587ZM204.329 193.545C204.329 196.137 204.528 198.265 204.771 198.275C205.015 198.284 206.6 196.759 208.294 194.887L211.373 191.484L211.388 194.871C211.399 197.483 211.605 198.258 212.287 198.258C212.999 198.258 213.171 197.342 213.171 193.545C213.171 190.212 212.958 188.833 212.446 188.833C212.048 188.833 210.336 190.357 208.642 192.22L205.562 195.607L205.535 192.22C205.52 190.357 205.243 188.833 204.919 188.833C204.575 188.833 204.329 190.796 204.329 193.545ZM214.939 189.383C214.939 189.685 215.668 190.017 216.56 190.119C218.13 190.3 218.186 190.432 218.355 194.282C218.451 196.469 218.77 198.258 219.065 198.258C219.36 198.258 219.679 196.469 219.775 194.282C219.944 190.432 220 190.3 221.57 190.119C224.841 189.743 223.069 188.833 219.065 188.833C216.796 188.833 214.939 189.08 214.939 189.383ZM224.959 193.545C224.959 199.336 225.561 199.551 229.166 195.046C230.581 193.279 231.936 191.821 232.18 191.806C232.423 191.791 232.622 193.258 232.622 195.067C232.622 197.436 232.828 198.288 233.359 198.113C234.421 197.761 234.729 188.839 233.678 188.816C233.259 188.807 231.53 190.332 229.836 192.204L226.756 195.607L226.742 192.22C226.731 189.608 226.525 188.833 225.843 188.833C225.131 188.833 224.959 189.749 224.959 193.545ZM238.058 189.75C236.512 190.832 236.364 192.734 237.71 194.221C238.599 195.203 238.599 195.394 237.696 196.77C236.902 197.981 236.875 198.258 237.551 198.258C238.007 198.258 238.815 197.595 239.346 196.785C240.593 194.884 243.069 194.764 243.338 196.592C243.442 197.296 243.858 197.981 244.263 198.114C244.812 198.295 245 197.141 245 193.594V188.833H242.184C240.589 188.833 238.8 189.23 238.058 189.75ZM27.3681 190.928C30.3825 193.038 27.8532 197.857 24.4174 196.552C21.9766 195.624 21.4815 193.08 23.3735 191.189C24.7923 189.771 25.637 189.716 27.3681 190.928ZM50.9454 190.928C51.6916 191.45 52.2557 192.465 52.2557 193.285C52.2557 194.885 50.3807 197.08 49.0138 197.08C47.799 197.08 45.7719 194.952 45.7719 193.677C45.7719 192.158 47.4412 190.011 48.6213 190.011C49.1795 190.011 50.2251 190.424 50.9454 190.928ZM99.5111 190.986C101.213 192.525 100.804 192.956 97.642 192.956C94.5251 192.956 93.6244 191.871 95.7263 190.647C97.2146 189.781 98.2851 189.877 99.5111 190.986ZM131.108 190.928C134.123 193.038 131.593 197.857 128.157 196.552C125.717 195.624 125.222 193.08 127.114 191.189C128.532 189.771 129.377 189.716 131.108 190.928ZM150.73 190.621C152.904 191.784 151.737 197.08 149.306 197.08C147.734 197.08 145.975 195.219 145.975 193.554C145.975 190.652 148.211 189.273 150.73 190.621ZM168.037 190.936C170.552 193.451 167.911 197.771 164.622 196.521C163.768 196.196 163.065 195.726 163.061 195.475C163.057 195.224 162.899 194.446 162.712 193.747C162.486 192.906 162.787 192.06 163.604 191.243C165.07 189.778 166.761 189.661 168.037 190.936ZM198.892 190.704C199.915 191.726 198.659 192.956 196.595 192.956C195.178 192.956 194.898 192.713 194.898 191.484C194.898 190.264 195.181 190.011 196.549 190.011C197.456 190.011 198.511 190.323 198.892 190.704ZM243.232 192.073C243.232 193.861 243.042 194.135 241.806 194.135C239.668 194.135 238.516 193.535 238.516 192.422C238.516 190.952 239.712 190.011 241.581 190.011C243.074 190.011 243.232 190.207 243.232 192.073ZM178.984 195.031C178.984 196.13 176.451 197.365 175.19 196.882C174.683 196.687 174.268 195.99 174.268 195.331C174.268 194.328 174.649 194.135 176.626 194.135C178.343 194.135 178.984 194.378 178.984 195.031ZM199.319 195.607C199.319 196.543 198.865 196.823 197.109 196.968C195.07 197.137 194.898 197.031 194.898 195.607C194.898 194.183 195.07 194.077 197.109 194.247C198.865 194.391 199.319 194.671 199.319 195.607ZM71.707 207.684C72.472 209.112 74.7909 209.231 76.1136 207.908C77.3673 206.655 76.868 206.217 75.3007 207.195C74.3105 207.814 73.8318 207.822 72.8941 207.237C71.2578 206.215 70.9772 206.321 71.707 207.684ZM115.914 207.684C116.839 209.411 120.63 209.12 120.63 207.321C120.63 206.643 120.419 206.627 119.451 207.231C118.512 207.817 118.034 207.819 117.101 207.237C115.465 206.215 115.185 206.321 115.914 207.684ZM136.544 207.389C136.141 207.875 135.458 208.273 135.027 208.273C132.107 208.273 129.576 211.566 130.296 214.43C130.789 216.393 132.908 218.287 134.611 218.287C135.37 218.287 136.145 218.685 136.331 219.171C136.703 220.14 138.313 220.397 138.313 219.488C138.313 219.177 139.364 218.639 140.649 218.293C143.411 217.55 144.797 215.821 144.797 213.121C144.797 210.798 142.439 208.273 140.271 208.273C139.498 208.273 138.712 207.875 138.526 207.389C138.339 206.903 137.982 206.505 137.732 206.505C137.483 206.505 136.948 206.903 136.544 207.389ZM13.9426 213.28C13.9426 217.011 14.1766 219.465 14.532 219.465C14.8562 219.465 15.1215 218.704 15.1215 217.773C15.1215 216.172 15.2812 216.065 18.0745 215.797C21.6483 215.454 23.3771 214.072 23.3647 211.569C23.3488 208.347 21.5469 207.095 16.9287 207.095H13.9426V213.28ZM21.4608 209.931C22.2477 210.922 21.8799 212.995 20.7889 213.713C20.4275 213.951 19.0041 214.15 17.6266 214.155L15.1215 214.164V211.611C15.1215 210.207 15.2706 208.909 15.4533 208.726C16.097 208.083 20.7305 209.012 21.4608 209.931ZM136.544 213.28C136.544 217.486 135.843 218.085 133.139 216.192C130.597 214.413 132.236 209.451 135.366 209.451C136.424 209.451 136.544 209.844 136.544 213.28ZM141.718 210.368C144.446 212.277 142.756 217.109 139.36 217.109C138.464 217.109 138.313 216.557 138.313 213.28C138.313 209.075 139.014 208.475 141.718 210.368ZM26.695 211.261C25.5102 212.193 25.1418 213.006 25.1418 214.693C25.1418 219.053 30.0471 221.096 33.1257 218.019C37.3873 213.761 31.4511 207.522 26.695 211.261ZM38.9935 210.72C35.9844 212.365 35.4386 215.671 37.7881 218.019C39.4621 219.692 42.8348 219.989 44.0154 218.568C45.0811 217.284 44.5029 217.023 42.3733 217.827C40.7859 218.425 40.3562 218.37 39.3177 217.43C36.4996 214.882 38.9858 210.461 42.4888 211.791C44.9467 212.726 45.6193 212.476 44.0856 211.199C42.5401 209.912 40.7753 209.746 38.9935 210.72ZM48.9048 210.633C46.1126 211.758 45.522 215.735 47.8084 218.019C49.4824 219.692 52.8551 219.989 54.0358 218.568C55.1015 217.284 54.5232 217.023 52.3936 217.827C50.8063 218.425 50.3766 218.37 49.338 217.43C46.4952 214.859 49.0097 210.462 52.5528 211.808C54.5704 212.575 55.309 212.005 53.7629 210.875C52.4844 209.941 50.8287 209.859 48.9048 210.633ZM57.5606 214.753C57.5606 218.145 57.7669 219.457 58.2974 219.437C58.7029 219.421 60.2278 217.947 61.6866 216.16L64.3391 212.912L64.5159 216.188C64.645 218.577 64.9244 219.465 65.5474 219.465C66.2229 219.465 66.4021 218.477 66.4021 214.753C66.4021 208.969 65.8268 208.766 62.223 213.28C60.8001 215.062 59.4344 216.52 59.188 216.52C58.941 216.52 58.7395 215.062 58.7395 213.28C58.7395 211.498 58.4742 210.04 58.15 210.04C57.8064 210.04 57.5606 212.003 57.5606 214.753ZM69.9387 214.753C69.9387 218.145 70.145 219.458 70.6755 219.438C71.081 219.422 72.6058 217.917 74.0647 216.093L76.7171 212.776L76.894 216.121C77.023 218.569 77.3001 219.465 77.9255 219.465C78.601 219.465 78.7801 218.477 78.7801 214.753C78.7801 208.969 78.2048 208.766 74.6011 213.28C73.1782 215.062 71.8125 216.52 71.5661 216.52C71.3191 216.52 71.1175 215.062 71.1175 213.28C71.1175 211.498 70.8523 210.04 70.5281 210.04C70.1845 210.04 69.9387 212.003 69.9387 214.753ZM83.6813 210.633C80.8891 211.758 80.2985 215.735 82.5849 218.019C84.2589 219.692 87.6317 219.989 88.8123 218.568C89.8067 217.37 89.1919 216.858 87.7106 217.65C85.1342 219.028 82.9062 217.672 82.9062 214.724C82.9062 212.388 85.0594 210.946 87.2856 211.791C89.7436 212.726 90.4161 212.476 88.8824 211.199C87.4023 209.966 85.7767 209.79 83.6813 210.633ZM92.3371 214.753C92.3371 217.502 92.5829 219.465 92.9265 219.465C93.2507 219.465 93.5159 218.662 93.5159 217.68C93.5159 214.893 95.1334 214.729 97.2011 217.305C99.7068 220.427 101.212 220.173 98.8921 217.021L97.0932 214.576L98.891 212.308C100.133 210.74 100.422 210.04 99.8246 210.04C99.3496 210.04 98.2526 210.968 97.3873 212.102C96.5221 213.236 95.2966 214.164 94.6647 214.164C93.7446 214.164 93.5159 213.753 93.5159 212.102C93.5159 210.968 93.2507 210.04 92.9265 210.04C92.5829 210.04 92.3371 212.003 92.3371 214.753ZM103.321 211.261C100.04 213.84 102.079 219.465 106.295 219.465C110.711 219.465 112.834 214.567 109.752 211.486C107.962 209.697 105.423 209.608 103.321 211.261ZM113.95 210.433C113.191 211.191 113.505 219.464 114.293 219.482C114.699 219.491 116.417 217.966 118.111 216.095L121.19 212.691L121.205 216.078C121.216 218.69 121.421 219.465 122.103 219.465C122.815 219.465 122.988 218.549 122.988 214.753C122.988 208.962 122.386 208.748 118.781 213.252C117.366 215.019 116.01 216.477 115.767 216.492C115.524 216.508 115.325 215.062 115.325 213.28C115.325 210.279 114.928 209.456 113.95 210.433ZM148.012 211.486C145.137 214.359 147.037 219.465 150.98 219.465C153.55 219.465 154.817 218.952 154.817 217.909C154.817 217.26 154.556 217.207 153.677 217.678C152.041 218.552 150.328 218.43 149.259 217.362C147.642 215.745 148.234 215.342 152.228 215.342C155.537 215.342 156.068 215.202 155.764 214.41C155.567 213.897 155.406 213.245 155.406 212.96C155.406 212.676 154.826 211.902 154.116 211.241C152.359 209.605 149.791 209.708 148.012 211.486ZM159.336 210.433C159.12 210.649 158.943 212.107 158.943 213.673C158.943 215.763 158.62 216.843 157.728 217.734C157.06 218.402 156.595 219.508 156.697 220.192C156.942 221.853 158.353 222.28 158.353 220.693C158.353 219.566 158.691 219.465 162.479 219.465C166.212 219.465 166.606 219.577 166.606 220.644C166.606 221.292 166.871 221.822 167.195 221.822C167.519 221.822 167.784 221.027 167.784 220.055C167.784 219.083 167.519 218.287 167.195 218.287C166.858 218.287 166.606 216.52 166.606 214.164V210.04H163.167C161.276 210.04 159.552 210.217 159.336 210.433ZM171.106 211.261C169.061 212.869 168.925 216.479 170.843 218.264C172.334 219.653 176.121 219.9 177.138 218.675C178.033 217.596 177.324 217.031 176.062 217.819C174.687 218.677 172.094 217.963 171.317 216.513C170.721 215.4 170.88 215.342 174.542 215.342C178.227 215.342 178.394 215.28 178.394 213.912C178.394 212.228 175.896 210.04 173.973 210.04C173.25 210.04 171.96 210.59 171.106 211.261ZM181.341 216.52C181.341 221.887 181.493 223 182.225 223C182.871 223 183.11 222.333 183.11 220.526C183.11 218.601 183.267 218.209 183.817 218.759C184.206 219.147 185.354 219.465 186.367 219.465C190.466 219.465 192.439 213.792 189.219 211.261C187.514 209.92 185.98 209.725 184.286 210.631C183.548 211.026 183.06 211.026 182.816 210.631C181.766 208.934 181.341 210.631 181.341 216.52ZM193.981 210.875C192.448 211.995 193.167 212.577 195.15 211.824C196.982 211.127 199.024 211.906 199.024 213.301C199.024 213.912 198.349 214.164 196.708 214.164C193.173 214.164 191.425 216.499 193.447 218.521C194.068 219.14 195.37 219.4 197.573 219.342L200.793 219.258V215.827C200.793 213.182 200.523 212.127 199.614 211.218C198.238 209.843 195.611 209.684 193.981 210.875ZM203.74 214.753V219.465H208.16C212.188 219.465 212.581 219.57 212.581 220.644C212.581 221.292 212.846 221.822 213.171 221.822C213.495 221.822 213.76 221.027 213.76 220.055C213.76 219.083 213.495 218.287 213.171 218.287C212.834 218.287 212.581 216.52 212.581 214.164C212.581 210.891 212.399 210.04 211.697 210.04C210.996 210.04 210.813 210.891 210.813 214.164V218.287H208.16H205.508V214.164C205.508 210.891 205.325 210.04 204.624 210.04C203.912 210.04 203.74 210.957 203.74 214.753ZM216.118 214.753C216.118 220.561 216.687 220.746 220.467 216.158L223.191 212.85V216.158C223.191 218.705 223.394 219.465 224.075 219.465C224.787 219.465 224.959 218.549 224.959 214.753C224.959 212.161 224.716 210.04 224.419 210.04C224.121 210.04 222.534 211.564 220.89 213.427L217.903 216.815L217.894 213.427C217.888 210.813 217.685 210.04 217.002 210.04C216.29 210.04 216.118 210.957 216.118 214.753ZM228.496 214.704C228.496 220.544 229.065 220.749 232.681 216.211L235.274 212.958L235.451 216.211C235.58 218.58 235.86 219.465 236.483 219.465C237.158 219.465 237.337 218.477 237.337 214.753C237.337 211.36 237.131 210.048 236.601 210.068C236.196 210.083 234.67 211.589 233.211 213.414L230.559 216.733L230.264 213.579C230.099 211.81 229.646 210.32 229.233 210.184C228.684 210.003 228.496 211.158 228.496 214.704ZM31.4941 212.135C33.7929 213.744 32.742 218.287 30.0713 218.287C26.8848 218.287 25.588 213.977 28.2204 212.135C28.9407 211.631 29.6775 211.218 29.8573 211.218C30.0371 211.218 30.7739 211.631 31.4941 212.135ZM108.12 212.135C110.494 213.797 109.351 218.287 106.554 218.287C103.495 218.287 102.258 214.267 104.707 212.284C106.31 210.988 106.471 210.981 108.12 212.135ZM152.917 212.135C154.962 213.566 154.48 214.164 151.28 214.164C148.193 214.164 147.716 213.686 149.259 212.144C150.425 210.979 151.263 210.977 152.917 212.135ZM176.184 212.544L177.51 213.869L175.584 214.055C174.525 214.157 172.933 214.157 172.047 214.055L170.437 213.869L171.763 212.544C172.492 211.814 173.487 211.218 173.973 211.218C174.46 211.218 175.455 211.814 176.184 212.544ZM188.183 212.701C189.265 213.782 189.561 214.539 189.276 215.499C188.805 217.083 187.385 218.287 185.986 218.287C183.189 218.287 182.046 213.797 184.42 212.135C186.156 210.92 186.445 210.963 188.183 212.701ZM164.837 215.047V218.287H162.285H159.733L160.321 215.047C160.894 211.886 160.956 211.807 162.873 211.807H164.837V215.047ZM199.024 216.108C199.024 217.278 197.758 218.287 196.289 218.287C194.772 218.287 194.057 217.436 194.533 216.197C194.956 215.096 199.024 215.014 199.024 216.108Z" fill="#0E2137"/>
</svg>
